EastSyriacMarcusNew-Regular.ufo
<glyph name="exclam" format="2">
  <advance width="392"/>
  <unicode hex="0021"/>
  <outline>
    <component base="period.latn" xOffset="-6"/>
    <contour>
      <point x="155" y="321" type="line"/>
      <point x="237" y="321" type="line"/>
      <point x="308" y="766" type="line" smooth="yes"/>
      <point x="328" y="891"/>
      <point x="278" y="980"/>
      <point x="195" y="980" type="curve" smooth="yes"/>
      <point x="113" y="980"/>
      <point x="64" y="891"/>
      <point x="84" y="766" type="curve" smooth="yes"/>
    </contour>
  </outline>
</glyph>
<glyph name="numbersign" format="2">
  <advance width="750"/>
  <unicode hex="0023"/>
  <note>
numbersign
</note>
  <outline>
    <contour>
      <point x="357" y="0" type="line"/>
      <point x="455" y="0" type="line"/>
      <point x="626" y="824" type="line"/>
      <point x="529" y="824" type="line"/>
    </contour>
    <contour>
      <point x="50" y="229" type="line"/>
      <point x="675" y="229" type="line"/>
      <point x="675" y="318" type="line"/>
      <point x="50" y="318" type="line"/>
    </contour>
    <contour>
      <point x="123" y="0" type="line"/>
      <point x="219" y="0" type="line"/>
      <point x="392" y="824" type="line"/>
      <point x="295" y="824" type="line"/>
    </contour>
    <contour>
      <point x="74" y="504" type="line"/>
      <point x="699" y="504" type="line"/>
      <point x="699" y="594" type="line"/>
      <point x="74" y="594" type="line"/>
    </contour>
  </outline>
</glyph>
<glyph name="percent" format="2">
  <advance width="1119"/>
  <unicode hex="0025"/>
  <outline>
    <contour>
      <point x="290" y="-17" type="line"/>
      <point x="919" y="768" type="line"/>
      <point x="829" y="844" type="line"/>
      <point x="201" y="57" type="line"/>
    </contour>
    <contour>
      <point x="282" y="398" type="curve" smooth="yes"/>
      <point x="410" y="398"/>
      <point x="514" y="493"/>
      <point x="514" y="618" type="curve" smooth="yes"/>
      <point x="514" y="749"/>
      <point x="416" y="838"/>
      <point x="282" y="838" type="curve" smooth="yes"/>
      <point x="157" y="838"/>
      <point x="53" y="742"/>
      <point x="53" y="618" type="curve" smooth="yes"/>
      <point x="53" y="488"/>
      <point x="148" y="398"/>
    </contour>
    <contour>
      <point x="285" y="519" type="curve" smooth="yes"/>
      <point x="232" y="519"/>
      <point x="192" y="558"/>
      <point x="192" y="620" type="curve" smooth="yes"/>
      <point x="192" y="680"/>
      <point x="232" y="718"/>
      <point x="285" y="718" type="curve" smooth="yes"/>
      <point x="336" y="718"/>
      <point x="378" y="682"/>
      <point x="378" y="620" type="curve" smooth="yes"/>
      <point x="378" y="557"/>
      <point x="336" y="519"/>
    </contour>
    <contour>
      <point x="834" y="-12" type="curve" smooth="yes"/>
      <point x="962" y="-12"/>
      <point x="1066" y="81"/>
      <point x="1066" y="206" type="curve" smooth="yes"/>
      <point x="1066" y="336"/>
      <point x="968" y="425"/>
      <point x="834" y="425" type="curve" smooth="yes"/>
      <point x="710" y="425"/>
      <point x="604" y="329"/>
      <point x="604" y="206" type="curve" smooth="yes"/>
      <point x="604" y="77"/>
      <point x="701" y="-12"/>
    </contour>
    <contour>
      <point x="836" y="108" type="curve" smooth="yes"/>
      <point x="785" y="108"/>
      <point x="745" y="146"/>
      <point x="745" y="208" type="curve" smooth="yes"/>
      <point x="745" y="267"/>
      <point x="785" y="306"/>
      <point x="836" y="306" type="curve" smooth="yes"/>
      <point x="888" y="306"/>
      <point x="931" y="269"/>
      <point x="931" y="208" type="curve" smooth="yes"/>
      <point x="931" y="145"/>
      <point x="888" y="108"/>
    </contour>
  </outline>
</glyph>
<glyph name="ampersand" format="2">
  <advance width="1095"/>
  <unicode hex="0026"/>
  <note>
ampersand
</note>
  <outline>
    <contour>
      <point x="366" y="-13" type="curve" smooth="yes"/>
      <point x="615" y="-13"/>
      <point x="803" y="121"/>
      <point x="933" y="396" type="curve"/>
      <point x="1031" y="411" type="line"/>
      <point x="1027" y="482" type="line"/>
      <point x="699" y="481" type="line"/>
      <point x="694" y="409" type="line"/>
      <point x="793" y="396" type="line"/>
      <point x="721" y="189"/>
      <point x="606" y="106"/>
      <point x="433" y="106" type="curve" smooth="yes"/>
      <point x="300" y="106"/>
      <point x="245" y="170"/>
      <point x="245" y="247" type="curve" smooth="yes"/>
      <point x="245" y="321"/>
      <point x="292" y="388"/>
      <point x="412" y="445" type="curve"/>
      <point x="607" y="520"/>
      <point x="702" y="619"/>
      <point x="702" y="739" type="curve" smooth="yes"/>
      <point x="702" y="862"/>
      <point x="619" y="938"/>
      <point x="474" y="938" type="curve" smooth="yes"/>
      <point x="316" y="938"/>
      <point x="197" y="834"/>
      <point x="197" y="669" type="curve" smooth="yes"/>
      <point x="197" y="566"/>
      <point x="247" y="465"/>
      <point x="375" y="294" type="curve" smooth="yes"/>
      <point x="524" y="93"/>
      <point x="651" y="-13"/>
      <point x="856" y="-13" type="curve" smooth="yes"/>
      <point x="965" y="-13"/>
      <point x="1060" y="32"/>
      <point x="1116" y="114" type="curve"/>
      <point x="1070" y="165" type="line"/>
      <point x="1028" y="130"/>
      <point x="974" y="114"/>
      <point x="928" y="114" type="curve" smooth="yes"/>
      <point x="804" y="114"/>
      <point x="719" y="179"/>
      <point x="577" y="357" type="curve" smooth="yes"/>
      <point x="408" y="564"/>
      <point x="375" y="652"/>
      <point x="375" y="737" type="curve" smooth="yes"/>
      <point x="375" y="810"/>
      <point x="414" y="853"/>
      <point x="466" y="853" type="curve" smooth="yes"/>
      <point x="510" y="853"/>
      <point x="542" y="820"/>
      <point x="542" y="751" type="curve" smooth="yes"/>
      <point x="542" y="648"/>
      <point x="506" y="587"/>
      <point x="345" y="488" type="curve"/>
      <point x="158" y="445"/>
      <point x="39" y="346"/>
      <point x="39" y="218" type="curve" smooth="yes"/>
      <point x="39" y="87"/>
      <point x="152" y="-13"/>
    </contour>
  </outline>
</glyph>
<glyph name="parenright" format="2">
  <advance width="646"/>
  <unicode hex="0029"/>
  <outline>
    <contour>
      <point x="178" y="-15" type="curve"/>
      <point x="288" y="-15" type="line"/>
      <point x="407" y="164"/>
      <point x="466" y="349"/>
      <point x="466" y="539" type="curve" smooth="yes"/>
      <point x="466" y="725"/>
      <point x="406" y="904"/>
      <point x="285" y="1075" type="curve"/>
      <point x="177" y="1075" type="line"/>
      <point x="268" y="875"/>
      <point x="313" y="692"/>
      <point x="313" y="527" type="curve" smooth="yes"/>
      <point x="313" y="444"/>
      <point x="302" y="356"/>
      <point x="280" y="264" type="curve" smooth="yes"/>
      <point x="261" y="184"/>
      <point x="227" y="91"/>
    </contour>
  </outline>
</glyph>
<glyph name="period" format="2">
  <advance width="407"/>
  <unicode hex="002E"/>
  <outline>
    <contour>
      <point x="203" y="-4" type="curve" smooth="yes"/>
      <point x="267" y="-4"/>
      <point x="318" y="43"/>
      <point x="318" y="107" type="curve" smooth="yes"/>
      <point x="318" y="171"/>
      <point x="267" y="220"/>
      <point x="203" y="220" type="curve" smooth="yes"/>
      <point x="140" y="220"/>
      <point x="87" y="171"/>
      <point x="87" y="107" type="curve" smooth="yes"/>
      <point x="87" y="43"/>
      <point x="140" y="-4"/>
    </contour>
  </outline>
</glyph>
<glyph name="five" format="2">
  <advance width="791"/>
  <unicode hex="0035"/>
  <anchor x="468" y="-75" name="L"/>
  <anchor x="468" y="1147" name="U"/>
  <outline>
    <contour>
      <point x="344" y="-15" type="curve" smooth="yes"/>
      <point x="543" y="-15"/>
      <point x="707" y="104"/>
      <point x="707" y="298" type="curve" smooth="yes"/>
      <point x="707" y="471"/>
      <point x="575" y="584"/>
      <point x="398" y="584" type="curve" smooth="yes"/>
      <point x="359" y="584"/>
      <point x="311" y="572"/>
      <point x="290" y="562" type="curve"/>
      <point x="290" y="749" type="line"/>
      <point x="500" y="749" type="line" smooth="yes"/>
      <point x="553" y="749"/>
      <point x="621" y="746"/>
      <point x="669" y="736" type="curve"/>
      <point x="669" y="905" type="line"/>
      <point x="124" y="905" type="line"/>
      <point x="124" y="402" type="line"/>
      <point x="203" y="433"/>
      <point x="270" y="444"/>
      <point x="337" y="444" type="curve" smooth="yes"/>
      <point x="439" y="444"/>
      <point x="529" y="394"/>
      <point x="529" y="295" type="curve" smooth="yes"/>
      <point x="529" y="202"/>
      <point x="452" y="137"/>
      <point x="350" y="137" type="curve" smooth="yes"/>
      <point x="261" y="137"/>
      <point x="187" y="161"/>
      <point x="102" y="230" type="curve"/>
      <point x="77" y="51" type="line"/>
      <point x="156" y="1"/>
      <point x="245" y="-15"/>
    </contour>
  </outline>
</glyph>
<glyph name="nine" format="2">
  <advance width="791"/>
  <unicode hex="0039"/>
  <anchor x="468" y="-75" name="L"/>
  <anchor x="468" y="1147" name="U"/>
  <outline>
    <contour>
      <point x="316" y="-15" type="curve" smooth="yes"/>
      <point x="620" y="-15"/>
      <point x="727" y="262"/>
      <point x="727" y="482" type="curve" smooth="yes"/>
      <point x="727" y="705"/>
      <point x="626" y="918"/>
      <point x="378" y="918" type="curve" smooth="yes"/>
      <point x="201" y="918"/>
      <point x="48" y="801"/>
      <point x="48" y="610" type="curve" smooth="yes"/>
      <point x="48" y="459"/>
      <point x="176" y="357"/>
      <point x="354" y="357" type="curve" smooth="yes"/>
      <point x="475" y="357"/>
      <point x="585" y="440"/>
      <point x="647" y="545" type="curve"/>
      <point x="602" y="623" type="line"/>
      <point x="554" y="550"/>
      <point x="468" y="495"/>
      <point x="369" y="495" type="curve" smooth="yes"/>
      <point x="274" y="495"/>
      <point x="211" y="541"/>
      <point x="211" y="632" type="curve" smooth="yes"/>
      <point x="211" y="706"/>
      <point x="274" y="768"/>
      <point x="368" y="768" type="curve" smooth="yes"/>
      <point x="496" y="768"/>
      <point x="558" y="674"/>
      <point x="558" y="502" type="curve" smooth="yes"/>
      <point x="558" y="207"/>
      <point x="449" y="133"/>
      <point x="323" y="133" type="curve" smooth="yes"/>
      <point x="262" y="133"/>
      <point x="190" y="149"/>
      <point x="135" y="204" type="curve"/>
      <point x="101" y="41" type="line"/>
      <point x="161" y="3"/>
      <point x="235" y="-15"/>
    </contour>
  </outline>
</glyph>
<glyph name="colon" format="2">
  <advance width="481"/>
  <unicode hex="003A"/>
  <outline>
    <contour>
      <point x="154" y="309" type="line"/>
      <point x="349" y="309" type="line"/>
      <point x="349" y="504" type="line"/>
      <point x="154" y="504" type="line"/>
    </contour>
    <contour>
      <point x="154" y="12" type="line"/>
      <point x="349" y="12" type="line"/>
      <point x="349" y="207" type="line"/>
      <point x="154" y="207" type="line"/>
    </contour>
  </outline>
</glyph>
<glyph name="question" format="2">
  <advance width="693"/>
  <unicode hex="003F"/>
  <outline>
    <contour>
      <point x="616" y="605" type="qcurve" smooth="yes"/>
      <point x="616" y="515"/>
      <point x="534" y="452" type="qcurve" smooth="yes"/>
      <point x="489" y="417"/>
      <point x="372" y="367" type="qcurve"/>
      <point x="375" y="267"/>
      <point x="342" y="267" type="qcurve" smooth="yes"/>
      <point x="311" y="267"/>
      <point x="311" y="307" type="qcurve" smooth="yes"/>
      <point x="311" y="407" type="line"/>
      <point x="557" y="498"/>
      <point x="557" y="604" type="qcurve" smooth="yes"/>
      <point x="557" y="689"/>
      <point x="434" y="797"/>
      <point x="347" y="797" type="qcurve" smooth="yes"/>
      <point x="261" y="797"/>
      <point x="157" y="746" type="qcurve"/>
      <point x="159" y="691"/>
      <point x="158" y="686" type="qcurve" smooth="yes"/>
      <point x="154" y="645"/>
      <point x="127" y="645" type="qcurve" smooth="yes"/>
      <point x="97" y="645"/>
      <point x="97" y="685" type="qcurve" smooth="yes"/>
      <point x="97" y="786" type="line"/>
      <point x="258" y="857"/>
      <point x="352" y="857" type="qcurve" smooth="yes"/>
      <point x="467" y="857"/>
      <point x="616" y="719"/>
    </contour>
    <contour>
      <point x="445" y="54" type="qcurve" smooth="yes"/>
      <point x="445" y="23"/>
      <point x="401" y="-21"/>
      <point x="370" y="-21" type="qcurve" smooth="yes"/>
      <point x="310" y="-21" type="line" smooth="yes"/>
      <point x="280" y="-21"/>
      <point x="236" y="23"/>
      <point x="236" y="53" type="qcurve" smooth="yes"/>
      <point x="236" y="84"/>
      <point x="279" y="128"/>
      <point x="310" y="128" type="qcurve" smooth="yes"/>
      <point x="370" y="128" type="line" smooth="yes"/>
      <point x="401" y="128"/>
      <point x="445" y="84"/>
    </contour>
  </outline>
</glyph>
<glyph name="F" format="2">
  <advance width="762"/>
  <unicode hex="0046"/>
  <note>
F
</note>
  <anchor x="370" y="824" name="above"/>
  <anchor x="244" y="0" name="below"/>
  <outline>
    <contour>
      <point x="58" y="0" type="line"/>
      <point x="461" y="0" type="line"/>
      <point x="466" y="73" type="line"/>
      <point x="352" y="93" type="line"/>
      <point x="348" y="105"/>
      <point x="342" y="189"/>
      <point x="342" y="236" type="curve"/>
      <point x="341" y="564" type="line"/>
      <point x="341" y="703"/>
      <point x="340" y="715"/>
      <point x="342" y="733" type="curve"/>
      <point x="361" y="738"/>
      <point x="395" y="740"/>
      <point x="428" y="740" type="curve" smooth="yes"/>
      <point x="530" y="740" type="line" smooth="yes"/>
      <point x="552" y="740"/>
      <point x="569" y="739"/>
      <point x="593" y="733" type="curve"/>
      <point x="648" y="609" type="line"/>
      <point x="731" y="621" type="line"/>
      <point x="692" y="831" type="line"/>
      <point x="644" y="828"/>
      <point x="532" y="824"/>
      <point x="471" y="824" type="curve" smooth="yes"/>
      <point x="55" y="824" type="line"/>
      <point x="50" y="752" type="line"/>
      <point x="140" y="729" type="line"/>
      <point x="144" y="719"/>
      <point x="148" y="626"/>
      <point x="148" y="511" type="curve"/>
      <point x="147" y="311" type="line"/>
      <point x="147" y="197"/>
      <point x="142" y="105"/>
      <point x="138" y="93" type="curve"/>
      <point x="53" y="71" type="line"/>
    </contour>
    <contour>
      <point x="542" y="263" type="line"/>
      <point x="626" y="263" type="line"/>
      <point x="626" y="556" type="line"/>
      <point x="542" y="556" type="line"/>
      <point x="529" y="464" type="line"/>
      <point x="516" y="463"/>
      <point x="486" y="460"/>
      <point x="448" y="460" type="curve" smooth="yes"/>
      <point x="371" y="460" type="line" smooth="yes"/>
      <point x="338" y="460"/>
      <point x="306" y="463"/>
      <point x="287" y="465" type="curve"/>
      <point x="287" y="363" type="line"/>
      <point x="308" y="364"/>
      <point x="337" y="368"/>
      <point x="371" y="368" type="curve" smooth="yes"/>
      <point x="448" y="368" type="line" smooth="yes"/>
      <point x="475" y="368"/>
      <point x="505" y="366"/>
      <point x="529" y="363" type="curve"/>
    </contour>
  </outline>
</glyph>
<glyph name="N" format="2">
  <advance width="985"/>
  <unicode hex="004E"/>
  <note>
N
</note>
  <anchor x="492" y="824" name="above"/>
  <anchor x="492" y="0" name="below"/>
  <outline>
    <contour>
      <point x="731" y="262" type="line"/>
      <point x="790" y="262" type="line"/>
      <point x="279" y="824" type="line"/>
      <point x="54" y="824" type="line"/>
      <point x="50" y="752" type="line"/>
      <point x="139" y="729" type="line"/>
      <point x="142" y="710"/>
      <point x="149" y="619"/>
      <point x="149" y="553" type="curve" smooth="yes"/>
      <point x="149" y="370" type="line" smooth="yes"/>
      <point x="149" y="230"/>
      <point x="144" y="110"/>
      <point x="139" y="93" type="curve"/>
      <point x="50" y="71" type="line"/>
      <point x="54" y="0" type="line"/>
      <point x="361" y="0" type="line"/>
      <point x="366" y="71" type="line"/>
      <point x="267" y="93" type="line"/>
      <point x="260" y="110"/>
      <point x="257" y="220"/>
      <point x="257" y="370" type="curve" smooth="yes"/>
      <point x="257" y="642" type="line"/>
      <point x="178" y="642" type="line"/>
      <point x="747" y="-7" type="line"/>
      <point x="834" y="-7" type="line"/>
      <point x="834" y="57"/>
      <point x="835" y="119"/>
      <point x="835" y="209" type="curve" smooth="yes"/>
      <point x="835" y="470" type="line" smooth="yes"/>
      <point x="835" y="605"/>
      <point x="839" y="716"/>
      <point x="844" y="729" type="curve"/>
      <point x="934" y="752" type="line"/>
      <point x="930" y="824" type="line"/>
      <point x="628" y="824" type="line"/>
      <point x="624" y="752" type="line"/>
      <point x="721" y="729" type="line"/>
      <point x="728" y="716"/>
      <point x="731" y="603"/>
      <point x="731" y="470" type="curve" smooth="yes"/>
    </contour>
  </outline>
</glyph>
<glyph name="S" format="2">
  <advance width="726"/>
  <unicode hex="0053"/>
  <note>
S
</note>
  <anchor x="373" y="824" name="above"/>
  <anchor x="373" y="0" name="below"/>
  <outline>
    <contour>
      <point x="332" y="-12" type="curve" smooth="yes"/>
      <point x="545" y="-12"/>
      <point x="688" y="93"/>
      <point x="688" y="238" type="curve" smooth="yes"/>
      <point x="688" y="507"/>
      <point x="277" y="456"/>
      <point x="277" y="640" type="curve" smooth="yes"/>
      <point x="277" y="709"/>
      <point x="334" y="749"/>
      <point x="407" y="749" type="curve" smooth="yes"/>
      <point x="446" y="749"/>
      <point x="477" y="741"/>
      <point x="507" y="728" type="curve"/>
      <point x="552" y="587" type="line"/>
      <point x="644" y="593" type="line"/>
      <point x="626" y="800" type="line"/>
      <point x="574" y="823"/>
      <point x="486" y="840"/>
      <point x="421" y="840" type="curve" smooth="yes"/>
      <point x="212" y="840"/>
      <point x="74" y="736"/>
      <point x="74" y="584" type="curve" smooth="yes"/>
      <point x="74" y="297"/>
      <point x="477" y="367"/>
      <point x="477" y="176" type="curve" smooth="yes"/>
      <point x="477" y="117"/>
      <point x="433" y="79"/>
      <point x="350" y="79" type="curve" smooth="yes"/>
      <point x="302" y="79"/>
      <point x="248" y="94"/>
      <point x="211" y="118" type="curve"/>
      <point x="164" y="264" type="line"/>
      <point x="71" y="259" type="line"/>
      <point x="78" y="49" type="line"/>
      <point x="146" y="11"/>
      <point x="252" y="-12"/>
    </contour>
  </outline>
</glyph>
<glyph name="T" format="2">
  <advance width="868"/>
  <unicode hex="0054"/>
  <note>
T
</note>
  <anchor x="434" y="824" name="above"/>
  <anchor x="433" y="0" name="below"/>
  <anchor x="434" y="425" name="stroke"/>
  <outline>
    <contour>
      <point x="811" y="831" type="line"/>
      <point x="771" y="830"/>
      <point x="659" y="824"/>
      <point x="608" y="824" type="curve" smooth="yes"/>
      <point x="254" y="824" type="line" smooth="yes"/>
      <point x="203" y="824"/>
      <point x="92" y="830"/>
      <point x="52" y="831" type="curve"/>
      <point x="23" y="579" type="line"/>
      <point x="112" y="570" type="line"/>
      <point x="164" y="735" type="line"/>
      <point x="182" y="738"/>
      <point x="207" y="740"/>
      <point x="232" y="740" type="curve" smooth="yes"/>
      <point x="280" y="740" type="line" smooth="yes"/>
      <point x="297" y="740"/>
      <point x="321" y="740"/>
      <point x="332" y="736" type="curve"/>
      <point x="333" y="719"/>
      <point x="335" y="581"/>
      <point x="335" y="456" type="curve" smooth="yes"/>
      <point x="335" y="330" type="line" smooth="yes"/>
      <point x="335" y="226"/>
      <point x="331" y="137"/>
      <point x="330" y="93" type="curve"/>
      <point x="208" y="73" type="line"/>
      <point x="212" y="0" type="line"/>
      <point x="655" y="0" type="line"/>
      <point x="659" y="73" type="line"/>
      <point x="537" y="93" type="line"/>
      <point x="535" y="137"/>
      <point x="533" y="226"/>
      <point x="533" y="330" type="curve" smooth="yes"/>
      <point x="533" y="456" type="line" smooth="yes"/>
      <point x="533" y="581"/>
      <point x="534" y="719"/>
      <point x="535" y="736" type="curve"/>
      <point x="547" y="740"/>
      <point x="570" y="740"/>
      <point x="587" y="740" type="curve" smooth="yes"/>
      <point x="634" y="740" type="line" smooth="yes"/>
      <point x="659" y="740"/>
      <point x="680" y="738"/>
      <point x="698" y="735" type="curve"/>
      <point x="755" y="574" type="line"/>
      <point x="843" y="581" type="line"/>
    </contour>
  </outline>
</glyph>
<glyph name="c" format="2">
  <advance width="648"/>
  <unicode hex="0063"/>
  <note>
c
</note>
  <anchor x="366" y="618" name="above"/>
  <anchor x="366" y="0" name="below"/>
  <outline>
    <contour>
      <point x="365" y="-10" type="curve" smooth="yes"/>
      <point x="474" y="-10"/>
      <point x="575" y="48"/>
      <point x="629" y="164" type="curve"/>
      <point x="585" y="206" type="line"/>
      <point x="535" y="147"/>
      <point x="483" y="127"/>
      <point x="432" y="127" type="curve" smooth="yes"/>
      <point x="329" y="127"/>
      <point x="251" y="201"/>
      <point x="251" y="344" type="curve" smooth="yes"/>
      <point x="251" y="488"/>
      <point x="337" y="560"/>
      <point x="418" y="543" type="curve"/>
      <point x="344" y="560" type="line"/>
      <point x="450" y="468" type="line" smooth="yes"/>
      <point x="484" y="437"/>
      <point x="509" y="426"/>
      <point x="546" y="426" type="curve" smooth="yes"/>
      <point x="586" y="426"/>
      <point x="621" y="451"/>
      <point x="621" y="498" type="curve" smooth="yes"/>
      <point x="621" y="573"/>
      <point x="523" y="629"/>
      <point x="399" y="629" type="curve" smooth="yes"/>
      <point x="193" y="629"/>
      <point x="47" y="471"/>
      <point x="47" y="293" type="curve" smooth="yes"/>
      <point x="47" y="115"/>
      <point x="188" y="-10"/>
    </contour>
  </outline>
</glyph>
<glyph name="f" format="2">
  <advance width="465"/>
  <unicode hex="0066"/>
  <note>
f
</note>
  <outline>
    <contour>
      <point x="423" y="0" type="line"/>
      <point x="428" y="65" type="line"/>
      <point x="312" y="89" type="line"/>
      <point x="306" y="159"/>
      <point x="304" y="265"/>
      <point x="304" y="360" type="curve"/>
      <point x="302" y="524" type="line"/>
      <point x="299" y="615" type="line"/>
      <point x="299" y="721" type="line" smooth="yes"/>
      <point x="299" y="846"/>
      <point x="329" y="914"/>
      <point x="384" y="914" type="curve"/>
      <point x="319" y="923" type="line"/>
      <point x="401" y="848" type="line" smooth="yes"/>
      <point x="430" y="822"/>
      <point x="455" y="810"/>
      <point x="484" y="810" type="curve" smooth="yes"/>
      <point x="525" y="810"/>
      <point x="551" y="834"/>
      <point x="551" y="874" type="curve" smooth="yes"/>
      <point x="551" y="936"/>
      <point x="483" y="980"/>
      <point x="387" y="980" type="curve" smooth="yes"/>
      <point x="230" y="980"/>
      <point x="114" y="843"/>
      <point x="114" y="657" type="curve" smooth="yes"/>
      <point x="114" y="524" type="line"/>
      <point x="116" y="358" type="line"/>
      <point x="116" y="189"/>
      <point x="116" y="162"/>
      <point x="113" y="89" type="curve"/>
      <point x="26" y="64" type="line"/>
      <point x="30" y="0" type="line"/>
    </contour>
    <contour>
      <point x="13" y="524" type="line"/>
      <point x="449" y="524" type="line"/>
      <point x="449" y="615" type="line"/>
      <point x="195" y="615" type="line"/>
      <point x="114" y="620" type="line"/>
      <point x="13" y="591" type="line"/>
    </contour>
  </outline>
</glyph>
<glyph name="p" format="2">
  <advance width="795"/>
  <unicode hex="0070"/>
  <note>
p
</note>
  <anchor x="401" y="618" name="above"/>
  <outline>
    <contour>
      <point x="21" y="-308" type="line"/>
      <point x="417" y="-308" type="line"/>
      <point x="422" y="-241" type="line"/>
      <point x="306" y="-218" type="line"/>
      <point x="302" y="-201"/>
      <point x="300" y="-142"/>
      <point x="300" y="-80" type="curve" smooth="yes"/>
      <point x="300" y="5" type="line"/>
      <point x="333" y="-4"/>
      <point x="368" y="-9"/>
      <point x="396" y="-9" type="curve" smooth="yes"/>
      <point x="611" y="-9"/>
      <point x="745" y="151"/>
      <point x="745" y="335" type="curve" smooth="yes"/>
      <point x="745" y="522"/>
      <point x="622" y="629"/>
      <point x="488" y="629" type="curve" smooth="yes"/>
      <point x="412" y="629"/>
      <point x="341" y="583"/>
      <point x="298" y="511" type="curve"/>
      <point x="293" y="514" type="line"/>
      <point x="304" y="601" type="line"/>
      <point x="264" y="626" type="line"/>
      <point x="13" y="561" type="line"/>
      <point x="13" y="497" type="line"/>
      <point x="102" y="477" type="line"/>
      <point x="111" y="429"/>
      <point x="114" y="389"/>
      <point x="114" y="334" type="curve" smooth="yes"/>
      <point x="111" y="60" type="line" smooth="yes"/>
      <point x="110" y="-53"/>
      <point x="105" y="-194"/>
      <point x="103" y="-218" type="curve"/>
      <point x="16" y="-243" type="line"/>
    </contour>
    <contour>
      <point x="399" y="91" type="curve" smooth="yes"/>
      <point x="364" y="91"/>
      <point x="327" y="102"/>
      <point x="300" y="120" type="curve"/>
      <point x="300" y="438" type="line"/>
      <point x="326" y="470"/>
      <point x="364" y="492"/>
      <point x="403" y="492" type="curve" smooth="yes"/>
      <point x="474" y="492"/>
      <point x="544" y="435"/>
      <point x="543" y="290" type="curve" smooth="yes"/>
      <point x="542" y="147"/>
      <point x="481" y="91"/>
    </contour>
  </outline>
</glyph>
<glyph name="v" format="2">
  <advance width="703"/>
  <unicode hex="0076"/>
  <note>
v
</note>
  <anchor x="352" y="618" name="above"/>
  <anchor x="352" y="0" name="below"/>
  <outline>
    <contour>
      <point x="316" y="-5" type="line"/>
      <point x="379" y="-5" type="line"/>
      <point x="649" y="528" type="line"/>
      <point x="716" y="553" type="line"/>
      <point x="712" y="618" type="line"/>
      <point x="455" y="618" type="line"/>
      <point x="451" y="553" type="line"/>
      <point x="538" y="528" type="line"/>
      <point x="394" y="193" type="line"/>
      <point x="434" y="192" type="line"/>
      <point x="278" y="528" type="line"/>
      <point x="365" y="553" type="line"/>
      <point x="361" y="618" type="line"/>
      <point x="-3" y="618" type="line"/>
      <point x="-7" y="553" type="line"/>
      <point x="57" y="528" type="line"/>
    </contour>
  </outline>
</glyph>
<glyph name="bar" format="2">
  <advance width="376"/>
  <unicode hex="007C"/>
  <note>
bar
</note>
  <outline>
    <contour>
      <point x="126" y="-308" type="line"/>
      <point x="250" y="-308" type="line"/>
      <point x="250" y="1013" type="line"/>
      <point x="126" y="1013" type="line"/>
    </contour>
  </outline>
</glyph>
<glyph name="braceright" format="2">
  <advance width="535"/>
  <unicode hex="007D"/>
  <note>
braceright
</note>
  <outline>
    <contour>
      <point x="186" y="-107" type="curve" smooth="yes"/>
      <point x="186" y="-196"/>
      <point x="127" y="-234"/>
      <point x="48" y="-245" type="curve"/>
      <point x="67" y="-319" type="line"/>
      <point x="271" y="-296"/>
      <point x="400" y="-227"/>
      <point x="400" y="-83" type="curve" smooth="yes"/>
      <point x="400" y="20"/>
      <point x="323" y="120"/>
      <point x="323" y="204" type="curve" smooth="yes"/>
      <point x="323" y="268"/>
      <point x="348" y="301"/>
      <point x="465" y="306" type="curve"/>
      <point x="465" y="397" type="line"/>
      <point x="348" y="401"/>
      <point x="323" y="435"/>
      <point x="323" y="499" type="curve" smooth="yes"/>
      <point x="323" y="583"/>
      <point x="400" y="684"/>
      <point x="400" y="788" type="curve" smooth="yes"/>
      <point x="400" y="932"/>
      <point x="271" y="1001"/>
      <point x="67" y="1024" type="curve"/>
      <point x="48" y="950" type="line"/>
      <point x="127" y="939"/>
      <point x="186" y="901"/>
      <point x="186" y="812" type="curve" smooth="yes"/>
      <point x="186" y="717"/>
      <point x="130" y="647"/>
      <point x="130" y="535" type="curve" smooth="yes"/>
      <point x="130" y="429"/>
      <point x="208" y="364"/>
      <point x="327" y="350" type="curve"/>
      <point x="327" y="370" type="line"/>
      <point x="209" y="356"/>
      <point x="130" y="274"/>
      <point x="130" y="168" type="curve" smooth="yes"/>
      <point x="130" y="56"/>
      <point x="186" y="-12"/>
    </contour>
  </outline>
</glyph>
<glyph name="currency" format="2">
  <advance width="757"/>
  <unicode hex="00A4"/>
  <note>
currency
</note>
  <outline>
    <contour>
      <point x="375" y="145" type="curve" smooth="yes"/>
      <point x="547" y="145"/>
      <point x="684" y="287"/>
      <point x="684" y="460" type="curve" smooth="yes"/>
      <point x="684" y="636"/>
      <point x="547" y="778"/>
      <point x="375" y="778" type="curve" smooth="yes"/>
      <point x="204" y="778"/>
      <point x="66" y="636"/>
      <point x="66" y="460" type="curve" smooth="yes"/>
      <point x="66" y="287"/>
      <point x="204" y="145"/>
    </contour>
    <contour>
      <point x="92" y="94" type="line"/>
      <point x="261" y="266" type="line"/>
      <point x="187" y="341" type="line"/>
      <point x="18" y="167" type="line"/>
    </contour>
    <contour>
      <point x="662" y="95" type="line"/>
      <point x="736" y="167" type="line"/>
      <point x="553" y="354" type="line"/>
      <point x="485" y="276" type="line"/>
    </contour>
    <contour>
      <point x="375" y="226" type="curve" smooth="yes"/>
      <point x="305" y="226"/>
      <point x="251" y="331"/>
      <point x="251" y="462" type="curve" smooth="yes"/>
      <point x="251" y="593"/>
      <point x="306" y="697"/>
      <point x="375" y="697" type="curve" smooth="yes"/>
      <point x="442" y="695"/>
      <point x="498" y="593"/>
      <point x="498" y="462" type="curve" smooth="yes"/>
      <point x="498" y="331"/>
      <point x="442" y="226"/>
    </contour>
    <contour>
      <point x="163" y="606" type="line"/>
      <point x="242" y="676" type="line"/>
      <point x="92" y="830" type="line"/>
      <point x="18" y="755" type="line"/>
    </contour>
    <contour>
      <point x="580" y="593" type="line"/>
      <point x="737" y="753" type="line"/>
      <point x="658" y="833" type="line"/>
      <point x="499" y="669" type="line"/>
    </contour>
  </outline>
</glyph>
<glyph name="ordfeminine" format="2">
  <advance width="600"/>
  <unicode hex="00AA"/>
  <note>
ordfeminine
</note>
  <outline>
    <contour>
      <point x="213" y="312" type="curve" smooth="yes"/>
      <point x="257" y="312"/>
      <point x="309" y="337"/>
      <point x="359" y="408" type="curve"/>
      <point x="334" y="416" type="line"/>
      <point x="360" y="364" type="line" smooth="yes"/>
      <point x="378" y="331"/>
      <point x="395" y="312"/>
      <point x="431" y="312" type="curve" smooth="yes"/>
      <point x="451" y="312"/>
      <point x="469" y="318"/>
      <point x="501" y="330" type="curve" smooth="yes"/>
      <point x="592" y="371" type="line"/>
      <point x="592" y="428" type="line"/>
      <point x="516" y="445" type="line"/>
      <point x="509" y="466"/>
      <point x="505" y="493"/>
      <point x="505" y="530" type="curve"/>
      <point x="505" y="655" type="line"/>
      <point x="507" y="766"/>
      <point x="424" y="834"/>
      <point x="273" y="834" type="curve"/>
      <point x="219" y="830"/>
      <point x="53" y="753"/>
      <point x="53" y="681" type="curve" smooth="yes"/>
      <point x="53" y="641"/>
      <point x="108" y="609"/>
      <point x="194" y="624" type="curve"/>
      <point x="200" y="704" type="line" smooth="yes"/>
      <point x="202" y="727"/>
      <point x="209" y="736"/>
      <point x="232" y="736" type="curve" smooth="yes"/>
      <point x="281" y="736"/>
      <point x="328" y="701"/>
      <point x="328" y="646" type="curve" smooth="yes"/>
      <point x="328" y="618" type="line"/>
      <point x="141" y="572" type="line" smooth="yes"/>
      <point x="70" y="555"/>
      <point x="44" y="513"/>
      <point x="44" y="461" type="curve" smooth="yes"/>
      <point x="44" y="396"/>
      <point x="111" y="312"/>
    </contour>
    <contour>
      <point x="296" y="428" type="curve" smooth="yes"/>
      <point x="248" y="428"/>
      <point x="223" y="456"/>
      <point x="223" y="489" type="curve" smooth="yes"/>
      <point x="223" y="519"/>
      <point x="241" y="537"/>
      <point x="270" y="541" type="curve" smooth="yes"/>
      <point x="331" y="552" type="line"/>
      <point x="331" y="441" type="line"/>
      <point x="318" y="431"/>
      <point x="306" y="428"/>
    </contour>
  </outline>
</glyph>
<glyph name="twosuperior" format="2">
  <advance width="561"/>
  <unicode hex="00B2"/>
  <note>
uni2082
</note>
  <outline>
    <contour>
      <point x="49" y="340" type="curve"/>
      <point x="51" y="273" type="line"/>
      <point x="77" y="277"/>
      <point x="104" y="279"/>
      <point x="129" y="279" type="curve" smooth="yes"/>
      <point x="340" y="279" type="line" smooth="yes"/>
      <point x="358" y="279"/>
      <point x="459" y="275"/>
      <point x="500" y="272" type="curve"/>
      <point x="537" y="451" type="line"/>
      <point x="461" y="461" type="line"/>
      <point x="433" y="402" type="line"/>
      <point x="406" y="400"/>
      <point x="398" y="398"/>
      <point x="363" y="398" type="curve" smooth="yes"/>
      <point x="200" y="398" type="line"/>
      <point x="198" y="388" type="line"/>
      <point x="369" y="459"/>
      <point x="466" y="558"/>
      <point x="466" y="659" type="curve" smooth="yes"/>
      <point x="466" y="764"/>
      <point x="383" y="832"/>
      <point x="262" y="832" type="curve" smooth="yes"/>
      <point x="156" y="832"/>
      <point x="70" y="781"/>
      <point x="25" y="686" type="curve"/>
      <point x="80" y="649" type="line"/>
      <point x="108" y="691"/>
      <point x="148" y="713"/>
      <point x="194" y="713" type="curve" smooth="yes"/>
      <point x="257" y="713"/>
      <point x="292" y="680"/>
      <point x="292" y="626" type="curve" smooth="yes"/>
      <point x="292" y="540"/>
      <point x="216" y="447"/>
    </contour>
  </outline>
</glyph>
<glyph name="Thorn" format="2">
  <advance width="808"/>
  <unicode hex="00DE"/>
  <note>
Thorn
</note>
  <outline>
    <contour>
      <point x="56" y="0" type="line"/>
      <point x="454" y="0" type="line"/>
      <point x="459" y="73" type="line"/>
      <point x="344" y="93" type="line"/>
      <point x="343" y="105"/>
      <point x="342" y="139"/>
      <point x="342" y="182" type="curve" smooth="yes"/>
      <point x="342" y="608" type="line"/>
      <point x="379" y="608" type="line" smooth="yes"/>
      <point x="489" y="608"/>
      <point x="552" y="553"/>
      <point x="552" y="427" type="curve" smooth="yes"/>
      <point x="552" y="322"/>
      <point x="503" y="259"/>
      <point x="407" y="259" type="curve" smooth="yes"/>
      <point x="374" y="259"/>
      <point x="343" y="268"/>
      <point x="324" y="279" type="curve"/>
      <point x="324" y="184" type="line"/>
      <point x="351" y="178"/>
      <point x="384" y="172"/>
      <point x="414" y="172" type="curve" smooth="yes"/>
      <point x="634" y="172"/>
      <point x="761" y="290"/>
      <point x="761" y="445" type="curve" smooth="yes"/>
      <point x="761" y="603"/>
      <point x="646" y="688"/>
      <point x="413" y="688" type="curve" smooth="yes"/>
      <point x="292" y="688" type="line"/>
      <point x="342" y="637" type="line"/>
      <point x="342" y="678" type="line" smooth="yes"/>
      <point x="342" y="699"/>
      <point x="343" y="721"/>
      <point x="344" y="731" type="curve"/>
      <point x="433" y="752" type="line"/>
      <point x="429" y="824" type="line"/>
      <point x="52" y="824" type="line"/>
      <point x="48" y="752" type="line"/>
      <point x="137" y="731" type="line"/>
      <point x="142" y="719"/>
      <point x="147" y="631"/>
      <point x="147" y="511" type="curve" smooth="yes"/>
      <point x="147" y="311" type="line" smooth="yes"/>
      <point x="147" y="193"/>
      <point x="142" y="105"/>
      <point x="137" y="93" type="curve"/>
      <point x="53" y="71" type="line"/>
    </contour>
  </outline>
</glyph>
<glyph name="eth" format="2">
  <advance width="739"/>
  <unicode hex="00F0"/>
  <note>
eth
</note>
  <outline>
    <contour>
      <point x="546" y="515" type="curve"/>
      <point x="576" y="602" type="line"/>
      <point x="527" y="616"/>
      <point x="468" y="626"/>
      <point x="421" y="626" type="curve" smooth="yes"/>
      <point x="197" y="626"/>
      <point x="47" y="508"/>
      <point x="47" y="305" type="curve" smooth="yes"/>
      <point x="47" y="120"/>
      <point x="189" y="-10"/>
      <point x="375" y="-10" type="curve" smooth="yes"/>
      <point x="563" y="-10"/>
      <point x="690" y="127"/>
      <point x="690" y="384" type="curve" smooth="yes"/>
      <point x="690" y="647"/>
      <point x="517" y="905"/>
      <point x="273" y="966" type="curve"/>
      <point x="58" y="966" type="line"/>
      <point x="55" y="902" type="line"/>
      <point x="364" y="821"/>
      <point x="496" y="629"/>
      <point x="496" y="318" type="curve" smooth="yes"/>
      <point x="496" y="148"/>
      <point x="463" y="82"/>
      <point x="399" y="82" type="curve" smooth="yes"/>
      <point x="325" y="82"/>
      <point x="250" y="157"/>
      <point x="250" y="326" type="curve" smooth="yes"/>
      <point x="250" y="461"/>
      <point x="313" y="539"/>
      <point x="419" y="539" type="curve" smooth="yes"/>
      <point x="461" y="539"/>
      <point x="506" y="532"/>
    </contour>
    <contour>
      <point x="122" y="668" type="line"/>
      <point x="626" y="900" type="line"/>
      <point x="590" y="980" type="line"/>
      <point x="84" y="749" type="line"/>
    </contour>
  </outline>
</glyph>
<glyph name="divide" format="2">
  <advance width="757"/>
  <unicode hex="00F7"/>
  <outline>
    <contour>
      <point x="683" y="419" type="line"/>
      <point x="74" y="419" type="line"/>
      <point x="74" y="294" type="line"/>
      <point x="683" y="294" type="line"/>
    </contour>
    <contour>
      <point x="370" y="20" type="curve" smooth="yes"/>
      <point x="422" y="20"/>
      <point x="465" y="61"/>
      <point x="465" y="113" type="curve" smooth="yes"/>
      <point x="465" y="166"/>
      <point x="422" y="211"/>
      <point x="370" y="211" type="curve" smooth="yes"/>
      <point x="320" y="211"/>
      <point x="277" y="166"/>
      <point x="277" y="113" type="curve" smooth="yes"/>
      <point x="277" y="61"/>
      <point x="320" y="20"/>
    </contour>
    <contour>
      <point x="370" y="504" type="curve" smooth="yes"/>
      <point x="422" y="504"/>
      <point x="465" y="544"/>
      <point x="465" y="598" type="curve" smooth="yes"/>
      <point x="465" y="651"/>
      <point x="422" y="694"/>
      <point x="370" y="694" type="curve" smooth="yes"/>
      <point x="320" y="694"/>
      <point x="277" y="651"/>
      <point x="277" y="598" type="curve" smooth="yes"/>
      <point x="277" y="544"/>
      <point x="320" y="504"/>
    </contour>
  </outline>
</glyph>
<glyph name="macroncomb" format="2">
  <unicode hex="0304"/>
  <anchor x="255" y="0" name="_above"/>
  <anchor x="255" y="225" name="above"/>
  <outline>
    <contour>
      <point x="47" y="0" type="curve" smooth="yes"/>
      <point x="480" y="0" type="line" smooth="yes"/>
      <point x="511" y="0"/>
      <point x="527" y="12"/>
      <point x="527" y="37" type="curve" smooth="yes"/>
      <point x="527" y="62"/>
      <point x="511" y="75"/>
      <point x="478" y="75" type="curve" smooth="yes"/>
      <point x="50" y="75" type="line" smooth="yes"/>
      <point x="17" y="75"/>
      <point x="1" y="62"/>
      <point x="1" y="37" type="curve" smooth="yes"/>
      <point x="1" y="12"/>
      <point x="16" y="0"/>
    </contour>
  </outline>
</glyph>
<glyph name="kashida-ar" format="2">
  <advance width="360"/>
  <unicode hex="0640"/>
  <anchor x="180" y="405" name="above"/>
  <anchor x="50" y="405" name="aboveleft"/>
  <anchor x="180" y="-150" name="below"/>
  <anchor x="50" y="-150" name="belowleft"/>
  <outline>
    <contour>
      <point x="0" y="0" type="line"/>
      <point x="360" y="0" type="line"/>
      <point x="360" y="195" type="line"/>
      <point x="0" y="195" type="line"/>
    </contour>
  </outline>
</glyph>
<glyph name="fullstopSupralinear-syriac" format="2">
  <advance width="430"/>
  <unicode hex="0701"/>
  <outline>
    <contour>
      <point x="218" y="630" type="curve" smooth="yes"/>
      <point x="270" y="630"/>
      <point x="313" y="673"/>
      <point x="313" y="726" type="curve" smooth="yes"/>
      <point x="313" y="778"/>
      <point x="270" y="821"/>
      <point x="218" y="821" type="curve" smooth="yes"/>
      <point x="165" y="821"/>
      <point x="122" y="778"/>
      <point x="122" y="726" type="curve" smooth="yes"/>
      <point x="122" y="673"/>
      <point x="165" y="630"/>
    </contour>
  </outline>
</glyph>
<glyph name="contraction-syriac" format="2">
  <advance width="854"/>
  <unicode hex="070A"/>
  <outline>
    <contour>
      <point x="355" y="1" type="line"/>
      <point x="494" y="1" type="line"/>
      <point x="494" y="158" type="line"/>
      <point x="355" y="158" type="line"/>
    </contour>
    <contour>
      <point x="355" y="223" type="line"/>
      <point x="494" y="223" type="line"/>
      <point x="494" y="380" type="line"/>
      <point x="355" y="380" type="line"/>
    </contour>
    <contour>
      <point x="140" y="467" type="curve" smooth="yes"/>
      <point x="714" y="467" type="line" smooth="yes"/>
      <point x="767" y="467"/>
      <point x="768" y="570"/>
      <point x="714" y="570" type="curve"/>
      <point x="668" y="570" type="line" smooth="yes"/>
      <point x="543" y="570"/>
      <point x="617" y="722"/>
      <point x="544" y="722" type="curve" smooth="yes"/>
      <point x="470" y="722"/>
      <point x="553" y="570"/>
      <point x="431" y="570" type="curve" smooth="yes"/>
      <point x="423" y="570" type="line" smooth="yes"/>
      <point x="301" y="570"/>
      <point x="384" y="722"/>
      <point x="310" y="722" type="curve" smooth="yes"/>
      <point x="237" y="722"/>
      <point x="311" y="570"/>
      <point x="186" y="570" type="curve" smooth="yes"/>
      <point x="140" y="570" type="line"/>
      <point x="86" y="570"/>
      <point x="87" y="467"/>
    </contour>
  </outline>
</glyph>
<glyph name="alaph-syriac" format="2">
  <advance width="630"/>
  <unicode hex="0710"/>
  <anchor x="259" y="975" name="above"/>
  <anchor x="50" y="975" name="aboveleft"/>
  <anchor x="259" y="-150" name="below"/>
  <anchor x="50" y="-150" name="belowleft"/>
  <outline>
    <contour>
      <point x="564" y="0" type="line" smooth="yes"/>
      <point x="583" y="0"/>
      <point x="580" y="110"/>
      <point x="580" y="167" type="curve" smooth="yes"/>
      <point x="580" y="180"/>
      <point x="580" y="195"/>
      <point x="574" y="195" type="curve" smooth="yes"/>
      <point x="250" y="195" type="line"/>
      <point x="307" y="154" type="line"/>
      <point x="358" y="299"/>
      <point x="405" y="455"/>
      <point x="405" y="650" type="curve" smooth="yes"/>
      <point x="405" y="804"/>
      <point x="332" y="867"/>
      <point x="259" y="867" type="curve" smooth="yes"/>
      <point x="185" y="867"/>
      <point x="112" y="804"/>
      <point x="112" y="707" type="curve" smooth="yes"/>
      <point x="112" y="566"/>
      <point x="320" y="677"/>
      <point x="320" y="538" type="curve" smooth="yes"/>
      <point x="320" y="349"/>
      <point x="66" y="183"/>
      <point x="54" y="175" type="curve"/>
      <point x="51" y="170"/>
      <point x="50" y="161"/>
      <point x="50" y="149" type="curve" smooth="yes"/>
      <point x="50" y="98"/>
      <point x="53" y="0"/>
      <point x="59" y="0" type="curve" smooth="yes"/>
    </contour>
  </outline>
</glyph>
<glyph name="gamalgarshuni-syriac" format="2">
  <advance width="1091"/>
  <unicode hex="0714"/>
  <anchor x="970" y="795" name="above"/>
  <anchor x="58" y="795" name="aboveleft"/>
  <anchor x="693" y="-150" name="below"/>
  <anchor x="58" y="-150" name="belowleft"/>
  <outline>
    <component base="gamal-syriac" xOffset="8"/>
    <contour>
      <point x="747" y="429" type="line"/>
      <point x="702" y="511" type="line"/>
      <point x="451" y="182" type="line"/>
      <point x="556" y="182" type="line"/>
    </contour>
  </outline>
</glyph>
<glyph name="dalathrishDotless-syriac" format="2">
  <advance width="631"/>
  <unicode hex="0716"/>
  <anchor x="275" y="720" name="above"/>
  <anchor x="43" y="720" name="aboveleft"/>
  <anchor x="275" y="-150" name="below"/>
  <anchor x="13" y="-150" name="belowleft"/>
  <outline>
    <contour>
      <point x="581" y="169" type="curve" smooth="yes"/>
      <point x="581" y="467"/>
      <point x="393" y="612"/>
      <point x="214" y="612" type="curve" smooth="yes"/>
      <point x="88" y="612"/>
      <point x="50" y="564"/>
      <point x="50" y="531" type="curve" smooth="yes"/>
      <point x="50" y="489"/>
      <point x="50" y="372"/>
      <point x="50" y="344" type="curve" smooth="yes"/>
      <point x="50" y="331"/>
      <point x="55" y="322"/>
      <point x="67" y="322" type="curve" smooth="yes"/>
      <point x="95" y="322"/>
      <point x="116" y="418"/>
      <point x="197" y="418" type="curve" smooth="yes"/>
      <point x="286" y="418"/>
      <point x="398" y="357"/>
      <point x="390" y="161" type="curve"/>
      <point x="421" y="195" type="line"/>
      <point x="50" y="195" type="line"/>
      <point x="50" y="0" type="line"/>
      <point x="536" y="0" type="line"/>
      <point x="555" y="28"/>
      <point x="581" y="83"/>
    </contour>
  </outline>
</glyph>
<glyph name="he-syriac" format="2">
  <advance width="865"/>
  <unicode hex="0717"/>
  <anchor x="415" y="765" name="above"/>
  <anchor x="50" y="765" name="aboveleft"/>
  <anchor x="400" y="-150" name="below"/>
  <anchor x="50" y="-150" name="belowleft"/>
  <outline>
    <contour>
      <point x="794" y="-134" type="curve" smooth="yes"/>
      <point x="804" y="-134"/>
      <point x="815" y="-129"/>
      <point x="815" y="-114" type="curve" smooth="yes"/>
      <point x="806" y="577" type="line" smooth="yes"/>
      <point x="806" y="613"/>
      <point x="800" y="646"/>
      <point x="785" y="646" type="curve" smooth="yes"/>
      <point x="769" y="646"/>
      <point x="748" y="595"/>
      <point x="703" y="595" type="curve" smooth="yes"/>
      <point x="287" y="595" type="line" smooth="yes"/>
      <point x="157" y="595"/>
      <point x="66" y="420"/>
      <point x="66" y="287" type="curve" smooth="yes"/>
      <point x="66" y="138"/>
      <point x="167" y="-18"/>
      <point x="361" y="-18" type="curve" smooth="yes"/>
      <point x="618" y="-18"/>
      <point x="637" y="184"/>
      <point x="631" y="441" type="curve"/>
      <point x="488" y="413" type="line"/>
      <point x="496" y="386"/>
      <point x="497" y="362"/>
      <point x="497" y="335" type="curve" smooth="yes"/>
      <point x="497" y="257"/>
      <point x="462" y="185"/>
      <point x="363" y="185" type="curve" smooth="yes"/>
      <point x="298" y="185"/>
      <point x="236" y="230"/>
      <point x="236" y="330" type="curve" smooth="yes"/>
      <point x="236" y="366"/>
      <point x="249" y="400"/>
      <point x="295" y="421" type="curve"/>
      <point x="218" y="400" type="line"/>
      <point x="776" y="400" type="line"/>
      <point x="716" y="445" type="line"/>
      <point x="774" y="-115" type="line" smooth="yes"/>
      <point x="775" y="-128"/>
      <point x="784" y="-134"/>
    </contour>
  </outline>
</glyph>
<glyph name="waw-syriac" format="2">
  <advance width="713"/>
  <unicode hex="0718"/>
  <anchor x="355" y="750" name="above"/>
  <anchor x="46" y="750" name="aboveleft"/>
  <anchor x="355" y="-150" name="below"/>
  <anchor x="46" y="-150" name="belowleft"/>
  <outline>
    <contour>
      <point x="355" y="-12" type="curve" smooth="yes"/>
      <point x="565" y="-12"/>
      <point x="663" y="24"/>
      <point x="663" y="186" type="curve" smooth="yes"/>
      <point x="663" y="461"/>
      <point x="574" y="612"/>
      <point x="355" y="612" type="curve" smooth="yes"/>
      <point x="137" y="612"/>
      <point x="50" y="428"/>
      <point x="50" y="250" type="curve" smooth="yes"/>
      <point x="50" y="168"/>
      <point x="68" y="95"/>
      <point x="127" y="47" type="curve" smooth="yes"/>
      <point x="179" y="5"/>
      <point x="251" y="-12"/>
    </contour>
    <contour>
      <point x="271" y="183"/>
      <point x="244" y="231"/>
      <point x="244" y="283" type="curve" smooth="yes"/>
      <point x="244" y="347"/>
      <point x="291" y="418"/>
      <point x="354" y="418" type="curve" smooth="yes"/>
      <point x="425" y="418"/>
      <point x="467" y="371"/>
      <point x="467" y="276" type="curve" smooth="yes"/>
      <point x="467" y="201"/>
      <point x="426" y="183"/>
      <point x="357" y="183" type="curve" smooth="yes"/>
    </contour>
  </outline>
</glyph>
<glyph name="zain-syriac" format="2">
  <advance width="452"/>
  <unicode hex="0719"/>
  <anchor x="211" y="705" name="above"/>
  <anchor x="40" y="705" name="aboveleft"/>
  <anchor x="257" y="-345" name="below"/>
  <anchor x="40" y="-345" name="belowleft"/>
  <outline>
    <contour>
      <point x="269" y="-67"/>
      <point x="118" y="-156"/>
      <point x="118" y="-197" type="curve" smooth="yes"/>
      <point x="118" y="-213"/>
      <point x="129" y="-222"/>
      <point x="145" y="-222" type="curve" smooth="yes"/>
      <point x="196" y="-222"/>
      <point x="402" y="-29"/>
      <point x="402" y="264" type="curve" smooth="yes"/>
      <point x="402" y="452"/>
      <point x="327" y="546"/>
      <point x="218" y="546" type="curve" smooth="yes"/>
      <point x="116" y="546"/>
      <point x="50" y="455"/>
      <point x="50" y="355" type="curve" smooth="yes"/>
      <point x="50" y="248"/>
      <point x="77" y="176"/>
      <point x="282" y="4" type="curve"/>
      <point x="252" y="96" type="line"/>
    </contour>
  </outline>
</glyph>
<glyph name="heth-syriac" format="2">
  <advance width="1256"/>
  <unicode hex="071A"/>
  <anchor x="676" y="540" name="above"/>
  <anchor x="50" y="540" name="aboveleft"/>
  <anchor x="691" y="-150" name="below"/>
  <anchor x="50" y="-150" name="belowleft"/>
  <outline>
    <component base="_heth-init" xOffset="722"/>
    <component base="_heth-med" xOffset="369"/>
    <component base="_LeftTail" xOffset="-50"/>
    <contour>
      <point x="593" y="195" type="curve"/>
      <point x="283" y="195" type="line"/>
      <point x="283" y="0" type="line"/>
      <point x="474" y="0" type="line" smooth="yes"/>
      <point x="559" y="0"/>
      <point x="593" y="65"/>
    </contour>
  </outline>
</glyph>
<glyph name="tethGarshuni-syriac" format="2">
  <advance width="1503"/>
  <unicode hex="071C"/>
  <anchor x="901" y="750" name="above"/>
  <anchor x="50" y="750" name="aboveleft"/>
  <anchor x="616" y="-150" name="below"/>
  <anchor x="50" y="-150" name="belowleft"/>
  <outline>
    <component base="teth-syriac"/>
    <contour>
      <point x="1184" y="-147" type="curve" smooth="yes"/>
      <point x="1227" y="-147"/>
      <point x="1249" y="-126"/>
      <point x="1249" y="-83" type="curve" smooth="yes"/>
      <point x="1249" y="-40"/>
      <point x="1227" y="-19"/>
      <point x="1184" y="-19" type="curve" smooth="yes"/>
      <point x="1141" y="-19"/>
      <point x="1120" y="-40"/>
      <point x="1120" y="-83" type="curve" smooth="yes"/>
      <point x="1120" y="-126"/>
      <point x="1141" y="-147"/>
    </contour>
  </outline>
</glyph>
<glyph name="yudhhe-syriac" format="2">
  <advance width="1279"/>
  <unicode hex="071E"/>
  <outline>
    <component base="he-syriac" xOffset="-16"/>
    <component base="_heth-init" xOffset="745"/>
    <contour>
      <point x="343" y="-275" type="curve" smooth="yes"/>
      <point x="387" y="-275"/>
      <point x="423" y="-239"/>
      <point x="423" y="-195" type="curve" smooth="yes"/>
      <point x="423" y="-151"/>
      <point x="387" y="-115"/>
      <point x="343" y="-115" type="curve" smooth="yes"/>
      <point x="299" y="-115"/>
      <point x="264" y="-151"/>
      <point x="264" y="-195" type="curve" smooth="yes"/>
      <point x="264" y="-239"/>
      <point x="299" y="-275"/>
    </contour>
    <contour>
      <point x="214" y="701" type="curve" smooth="yes"/>
      <point x="258" y="701"/>
      <point x="294" y="737"/>
      <point x="294" y="781" type="curve" smooth="yes"/>
      <point x="294" y="825"/>
      <point x="258" y="861"/>
      <point x="214" y="861" type="curve" smooth="yes"/>
      <point x="170" y="861"/>
      <point x="134" y="825"/>
      <point x="134" y="781" type="curve" smooth="yes"/>
      <point x="134" y="737"/>
      <point x="170" y="701"/>
    </contour>
    <contour>
      <point x="481" y="701" type="curve" smooth="yes"/>
      <point x="525" y="701"/>
      <point x="561" y="737"/>
      <point x="561" y="781" type="curve" smooth="yes"/>
      <point x="561" y="825"/>
      <point x="525" y="861"/>
      <point x="481" y="861" type="curve" smooth="yes"/>
      <point x="437" y="861"/>
      <point x="401" y="825"/>
      <point x="401" y="781" type="curve" smooth="yes"/>
      <point x="401" y="737"/>
      <point x="437" y="701"/>
    </contour>
    <contour>
      <point x="343" y="942" type="curve" smooth="yes"/>
      <point x="387" y="942"/>
      <point x="423" y="978"/>
      <point x="423" y="1022" type="curve" smooth="yes"/>
      <point x="423" y="1066"/>
      <point x="387" y="1102"/>
      <point x="343" y="1102" type="curve" smooth="yes"/>
      <point x="299" y="1102"/>
      <point x="264" y="1066"/>
      <point x="264" y="1022" type="curve" smooth="yes"/>
      <point x="264" y="978"/>
      <point x="299" y="942"/>
    </contour>
    <contour>
      <point x="1021" y="195" type="curve"/>
      <point x="774" y="195" type="line"/>
      <point x="774" y="0" type="line"/>
      <point x="962" y="0" type="line" smooth="yes"/>
      <point x="988" y="0"/>
      <point x="1021" y="9"/>
      <point x="1021" y="69" type="curve" smooth="yes"/>
      <point x="1021" y="113"/>
      <point x="1021" y="155"/>
    </contour>
  </outline>
</glyph>
<glyph name="semkathFinal-syriac" format="2">
  <advance width="1136"/>
  <unicode hex="0724"/>
  <anchor x="708" y="810" name="above"/>
  <anchor x="50" y="810" name="aboveleft"/>
  <anchor x="678" y="-210" name="below"/>
  <anchor x="50" y="-210" name="belowleft"/>
  <outline>
    <component base="_LeftTail" xOffset="-50"/>
    <contour>
      <point x="759" y="386" type="line"/>
      <point x="760" y="396"/>
      <point x="760" y="406"/>
      <point x="760" y="415" type="curve" smooth="yes"/>
      <point x="760" y="591"/>
      <point x="661" y="682"/>
      <point x="543" y="682" type="curve" smooth="yes"/>
      <point x="404" y="682"/>
      <point x="306" y="566"/>
      <point x="306" y="420" type="curve" smooth="yes"/>
      <point x="306" y="232"/>
      <point x="470" y="-10"/>
      <point x="752" y="-10" type="curve" smooth="yes"/>
      <point x="988" y="-10"/>
      <point x="1086" y="149"/>
      <point x="1086" y="299" type="curve" smooth="yes"/>
      <point x="1086" y="459"/>
      <point x="990" y="555"/>
      <point x="883" y="555" type="curve" smooth="yes"/>
      <point x="808" y="555"/>
      <point x="727" y="509"/>
      <point x="667" y="406" type="curve"/>
    </contour>
    <contour>
      <point x="530" y="-149" type="curve" smooth="yes"/>
      <point x="720" y="315"/>
      <point x="747" y="364"/>
      <point x="840" y="364" type="curve" smooth="yes"/>
      <point x="891" y="364"/>
      <point x="921" y="332"/>
      <point x="921" y="296" type="curve" smooth="yes"/>
      <point x="921" y="246"/>
      <point x="869" y="187"/>
      <point x="753" y="187" type="curve" smooth="yes"/>
      <point x="590" y="187"/>
      <point x="471" y="284"/>
      <point x="471" y="396" type="curve" smooth="yes"/>
      <point x="471" y="453"/>
      <point x="508" y="488"/>
      <point x="552" y="488" type="curve" smooth="yes"/>
      <point x="601" y="488"/>
      <point x="649" y="443"/>
      <point x="649" y="370" type="curve" smooth="yes"/>
      <point x="649" y="305"/>
      <point x="617" y="201"/>
      <point x="491" y="-133" type="curve" smooth="yes"/>
      <point x="490" y="-137"/>
      <point x="489" y="-141"/>
      <point x="489" y="-144" type="curve" smooth="yes"/>
      <point x="489" y="-157"/>
      <point x="498" y="-166"/>
      <point x="509" y="-166" type="curve" smooth="yes"/>
      <point x="517" y="-166"/>
      <point x="525" y="-161"/>
    </contour>
    <contour>
      <point x="543" y="195" type="curve"/>
      <point x="303" y="195" type="line"/>
      <point x="303" y="0" type="line"/>
      <point x="424" y="0" type="line" smooth="yes"/>
      <point x="509" y="0"/>
      <point x="543" y="65"/>
    </contour>
  </outline>
</glyph>
<glyph name="sadhe-syriac" format="2">
  <advance width="778"/>
  <unicode hex="0728"/>
  <anchor x="274" y="420" name="above"/>
  <anchor x="50" y="420" name="aboveleft"/>
  <anchor x="349" y="-615" name="below"/>
  <anchor x="50" y="-615" name="belowleft"/>
  <outline>
    <contour>
      <point x="165" y="-509" type="curve" smooth="yes"/>
      <point x="324" y="-511"/>
      <point x="485" y="-510"/>
      <point x="506" y="-510" type="curve" smooth="yes"/>
      <point x="581" y="-510"/>
      <point x="678" y="-491"/>
      <point x="678" y="-465" type="curve" smooth="yes"/>
      <point x="678" y="-433"/>
      <point x="678" y="-406"/>
      <point x="678" y="-382" type="curve" smooth="yes"/>
      <point x="678" y="-374"/>
      <point x="672" y="-351"/>
      <point x="653" y="-339" type="curve" smooth="yes"/>
      <point x="580" y="-293"/>
      <point x="341" y="-141"/>
      <point x="268" y="80" type="curve"/>
      <point x="179" y="34" type="line"/>
      <point x="218" y="11"/>
      <point x="276" y="0"/>
      <point x="335" y="0" type="curve" smooth="yes"/>
      <point x="434" y="0"/>
      <point x="544" y="8"/>
      <point x="577" y="88" type="curve"/>
      <point x="529" y="80" type="line"/>
      <point x="548" y="57"/>
      <point x="598" y="-1"/>
      <point x="673" y="-1" type="curve"/>
      <point x="673" y="113" type="line"/>
      <point x="673" y="137"/>
      <point x="530" y="324"/>
      <point x="500" y="324" type="curve" smooth="yes"/>
      <point x="489" y="324"/>
      <point x="478" y="316"/>
      <point x="474" y="306" type="curve" smooth="yes"/>
      <point x="457" y="265"/>
      <point x="448" y="243"/>
      <point x="434" y="227" type="curve" smooth="yes"/>
      <point x="413" y="202"/>
      <point x="387" y="194"/>
      <point x="335" y="194" type="curve" smooth="yes"/>
      <point x="174" y="194"/>
      <point x="147" y="265"/>
      <point x="120" y="306" type="curve" smooth="yes"/>
      <point x="113" y="317"/>
      <point x="108" y="324"/>
      <point x="98" y="324" type="curve" smooth="yes"/>
      <point x="74" y="324"/>
      <point x="47" y="287"/>
      <point x="45" y="202" type="curve" smooth="yes"/>
      <point x="39" y="-16"/>
      <point x="212" y="-252"/>
      <point x="501" y="-460" type="curve"/>
      <point x="508" y="-434" type="line"/>
      <point x="360" y="-439"/>
      <point x="211" y="-450"/>
      <point x="63" y="-469" type="curve" smooth="yes"/>
      <point x="47" y="-471"/>
      <point x="29" y="-473"/>
      <point x="29" y="-487" type="curve" smooth="yes"/>
      <point x="29" y="-497"/>
      <point x="44" y="-507"/>
    </contour>
  </outline>
</glyph>
<glyph name="taw-syriac" format="2">
  <advance width="890"/>
  <unicode hex="072C"/>
  <anchor x="303" y="975" name="above"/>
  <anchor x="48" y="975" name="aboveleft"/>
  <anchor x="363" y="-150" name="below"/>
  <anchor x="48" y="-150" name="belowleft"/>
  <outline>
    <contour>
      <point x="595" y="-23" type="curve" smooth="yes"/>
      <point x="607" y="-23"/>
      <point x="617" y="-21"/>
      <point x="617" y="-6" type="curve" smooth="yes"/>
      <point x="617" y="38"/>
      <point x="442" y="289"/>
      <point x="206" y="289" type="curve" smooth="yes"/>
      <point x="176" y="289"/>
      <point x="144" y="286"/>
      <point x="113" y="278" type="curve"/>
      <point x="106" y="150" type="line"/>
      <point x="264" y="646" type="line"/>
      <point x="225" y="594" type="line"/>
      <point x="363" y="457"/>
      <point x="617" y="184"/>
      <point x="840" y="-12" type="curve"/>
      <point x="840" y="46"/>
      <point x="840" y="107"/>
      <point x="840" y="165" type="curve" smooth="yes"/>
      <point x="840" y="177"/>
      <point x="839" y="239"/>
      <point x="805" y="275" type="curve" smooth="yes"/>
      <point x="495" y="601"/>
      <point x="373" y="734"/>
      <point x="318" y="792" type="curve" smooth="yes"/>
      <point x="288" y="823"/>
      <point x="277" y="828"/>
      <point x="266" y="828" type="curve" smooth="yes"/>
      <point x="255" y="828"/>
      <point x="241" y="817"/>
      <point x="234" y="790" type="curve" smooth="yes"/>
      <point x="216" y="721"/>
      <point x="50" y="198"/>
      <point x="50" y="110" type="curve" smooth="yes"/>
      <point x="50" y="-2"/>
      <point x="115" y="-18"/>
      <point x="163" y="-18" type="curve" smooth="yes"/>
      <point x="236" y="-18"/>
      <point x="347" y="92"/>
      <point x="424" y="92" type="curve" smooth="yes"/>
      <point x="511" y="92"/>
      <point x="544" y="-23"/>
    </contour>
  </outline>
</glyph>
<glyph name="rbasaabove-syriac" format="2">
  <unicode hex="0736"/>
  <anchor x="210" y="30" name="_above"/>
  <anchor x="195" y="435" name="above"/>
  <outline>
    <contour>
      <point x="272" y="9" type="curve"/>
      <point x="288" y="17"/>
      <point x="309" y="35"/>
      <point x="320" y="57" type="curve"/>
      <point x="327" y="88"/>
      <point x="331" y="116"/>
      <point x="331" y="141" type="curve" smooth="yes"/>
      <point x="331" y="237"/>
      <point x="260" y="303"/>
      <point x="174" y="303" type="curve" smooth="yes"/>
      <point x="119" y="302"/>
      <point x="89" y="282"/>
      <point x="42" y="254" type="curve"/>
      <point x="35" y="249"/>
      <point x="13" y="215"/>
      <point x="13" y="193" type="curve"/>
      <point x="56" y="222"/>
      <point x="104" y="249"/>
      <point x="153" y="249" type="curve" smooth="yes"/>
      <point x="222" y="249"/>
      <point x="287" y="202"/>
      <point x="287" y="108" type="curve" smooth="yes"/>
      <point x="287" y="81"/>
      <point x="282" y="48"/>
    </contour>
    <contour>
      <point x="119" y="0" type="line"/>
      <point x="246" y="222" type="line"/>
      <point x="205" y="250" type="line"/>
      <point x="76" y="25" type="line"/>
    </contour>
  </outline>
</glyph>
<glyph name="hbasabelow-syriac" format="2">
  <unicode hex="073B"/>
  <anchor x="160" y="0" name="_below"/>
  <anchor x="160" y="-300" name="below"/>
  <outline>
    <contour>
      <point x="0" y="-162" type="line"/>
      <point x="314" y="-162" type="line"/>
      <point x="314" y="-114" type="line"/>
      <point x="187" y="-114" type="line"/>
      <point x="187" y="-50" type="line"/>
      <point x="314" y="-50" type="line"/>
      <point x="314" y="0" type="line"/>
      <point x="0" y="0" type="line"/>
      <point x="0" y="-50" type="line"/>
      <point x="127" y="-50" type="line"/>
      <point x="127" y="-114" type="line"/>
      <point x="0" y="-114" type="line"/>
    </contour>
  </outline>
</glyph>
<glyph name="esasabelow-syriac" format="2">
  <unicode hex="073E"/>
  <anchor x="195" y="0" name="_below"/>
  <anchor x="180" y="-465" name="below"/>
  <outline>
    <contour>
      <point x="35" y="-366" type="line"/>
      <point x="338" y="-154" type="line"/>
      <point x="310" y="-113" type="line"/>
      <point x="165" y="-215" type="line"/>
      <point x="43" y="-40" type="line"/>
      <point x="0" y="-69" type="line"/>
      <point x="124" y="-244" type="line"/>
      <point x="6" y="-326" type="line"/>
    </contour>
    <contour>
      <point x="187" y="-150" type="curve" smooth="yes"/>
      <point x="227" y="-150"/>
      <point x="261" y="-115"/>
      <point x="261" y="-75" type="curve" smooth="yes"/>
      <point x="261" y="-35"/>
      <point x="227" y="0"/>
      <point x="187" y="0" type="curve" smooth="yes"/>
      <point x="146" y="0"/>
      <point x="112" y="-35"/>
      <point x="112" y="-75" type="curve" smooth="yes"/>
      <point x="112" y="-115"/>
      <point x="146" y="-150"/>
    </contour>
    <contour>
      <point x="187" y="-113" type="curve" smooth="yes"/>
      <point x="162" y="-113"/>
      <point x="150" y="-100"/>
      <point x="150" y="-75" type="curve" smooth="yes"/>
      <point x="150" y="-50"/>
      <point x="162" y="-38"/>
      <point x="187" y="-38" type="curve" smooth="yes"/>
      <point x="212" y="-38"/>
      <point x="224" y="-50"/>
      <point x="224" y="-75" type="curve" smooth="yes"/>
      <point x="224" y="-100"/>
      <point x="212" y="-113"/>
    </contour>
  </outline>
</glyph>
<glyph name="music-syriac" format="2">
  <unicode hex="0749"/>
  <anchor x="330" y="180" name="_above"/>
  <anchor x="270" y="585" name="above"/>
  <outline>
    <contour>
      <point x="8" y="36" type="line"/>
      <point x="584" y="438" type="line"/>
      <point x="584" y="520" type="line"/>
      <point x="8" y="116" type="line"/>
    </contour>
  </outline>
</glyph>
<glyph name="bullet" format="2">
  <advance width="588"/>
  <unicode hex="2022"/>
  <note>
bullet
</note>
  <outline>
    <contour>
      <point x="294" y="98" type="curve" smooth="yes"/>
      <point x="415" y="98"/>
      <point x="511" y="191"/>
      <point x="511" y="310" type="curve" smooth="yes"/>
      <point x="511" y="433"/>
      <point x="415" y="529"/>
      <point x="294" y="529" type="curve" smooth="yes"/>
      <point x="175" y="529"/>
      <point x="77" y="433"/>
      <point x="77" y="310" type="curve" smooth="yes"/>
      <point x="77" y="191"/>
      <point x="175" y="98"/>
    </contour>
  </outline>
</glyph>
<glyph name="guilsinglleft" format="2">
  <advance width="577"/>
  <unicode hex="2039"/>
  <note>
guilsinglleft
</note>
  <outline>
    <contour>
      <point x="485" y="543" type="line"/>
      <point x="434" y="602" type="line"/>
      <point x="104" y="350" type="line"/>
      <point x="104" y="277" type="line"/>
      <point x="434" y="24" type="line"/>
      <point x="485" y="82" type="line"/>
      <point x="257" y="367" type="line"/>
      <point x="257" y="259" type="line"/>
    </contour>
  </outline>
</glyph>
<glyph name="fraction" format="2">
  <advance width="188"/>
  <unicode hex="2044"/>
  <note>
fraction
</note>
  <outline>
    <contour>
      <point x="-161" y="-65" type="line"/>
      <point x="-72" y="-104" type="line"/>
      <point x="379" y="934" type="line"/>
      <point x="291" y="973" type="line"/>
    </contour>
  </outline>
</glyph>
<glyph name="trademark" format="2">
  <advance width="1582"/>
  <unicode hex="2122"/>
  <outline>
    <contour>
      <point x="1225" y="418" type="line"/>
      <point x="1534" y="418" type="line"/>
      <point x="1538" y="479" type="line"/>
      <point x="1468" y="493" type="line"/>
      <point x="1454" y="890" type="line"/>
      <point x="1524" y="904" type="line"/>
      <point x="1519" y="966" type="line"/>
      <point x="1265" y="966" type="line"/>
      <point x="1093" y="584" type="line"/>
      <point x="1132" y="584" type="line"/>
      <point x="927" y="966" type="line"/>
      <point x="685" y="966" type="line"/>
      <point x="681" y="902" type="line"/>
      <point x="751" y="888" type="line"/>
      <point x="745" y="493" type="line"/>
      <point x="675" y="479" type="line"/>
      <point x="679" y="418" type="line"/>
      <point x="910" y="418" type="line"/>
      <point x="914" y="479" type="line"/>
      <point x="843" y="493" type="line"/>
      <point x="839" y="935" type="line"/>
      <point x="747" y="935" type="line"/>
      <point x="1027" y="418" type="line"/>
      <point x="1111" y="418" type="line"/>
      <point x="1343" y="938" type="line"/>
      <point x="1279" y="938" type="line"/>
      <point x="1284" y="493" type="line"/>
      <point x="1221" y="479" type="line"/>
    </contour>
    <contour>
      <point x="147" y="418" type="line"/>
      <point x="521" y="418" type="line"/>
      <point x="525" y="479" type="line"/>
      <point x="426" y="493" type="line"/>
      <point x="422" y="530"/>
      <point x="423" y="587"/>
      <point x="423" y="649" type="curve" smooth="yes"/>
      <point x="423" y="700" type="line" smooth="yes"/>
      <point x="423" y="794"/>
      <point x="424" y="889"/>
      <point x="424" y="899" type="curve"/>
      <point x="432" y="901"/>
      <point x="443" y="901"/>
      <point x="453" y="901" type="curve" smooth="yes"/>
      <point x="477" y="901" type="line" smooth="yes"/>
      <point x="498" y="901"/>
      <point x="505" y="900"/>
      <point x="528" y="898" type="curve"/>
      <point x="567" y="788" type="line"/>
      <point x="641" y="793" type="line"/>
      <point x="616" y="972" type="line"/>
      <point x="584" y="969"/>
      <point x="482" y="966"/>
      <point x="445" y="966" type="curve" smooth="yes"/>
      <point x="221" y="966" type="line" smooth="yes"/>
      <point x="180" y="966"/>
      <point x="80" y="969"/>
      <point x="45" y="972" type="curve"/>
      <point x="27" y="792" type="line"/>
      <point x="100" y="787" type="line"/>
      <point x="136" y="898" type="line"/>
      <point x="158" y="900"/>
      <point x="169" y="901"/>
      <point x="192" y="901" type="curve" smooth="yes"/>
      <point x="213" y="901" type="line" smooth="yes"/>
      <point x="224" y="901"/>
      <point x="235" y="901"/>
      <point x="243" y="899" type="curve"/>
      <point x="244" y="890"/>
      <point x="245" y="794"/>
      <point x="245" y="700" type="curve" smooth="yes"/>
      <point x="245" y="649" type="line" smooth="yes"/>
      <point x="245" y="587"/>
      <point x="245" y="530"/>
      <point x="242" y="493" type="curve"/>
      <point x="143" y="478" type="line"/>
    </contour>
  </outline>
</glyph>
<glyph name="summation" format="2">
  <advance width="726"/>
  <unicode hex="2211"/>
  <note>
summation
</note>
  <outline>
    <contour>
      <point x="588" y="164" type="line"/>
      <point x="560" y="40" type="line"/>
      <point x="531" y="38"/>
      <point x="502" y="35"/>
      <point x="445" y="35" type="curve" smooth="yes"/>
      <point x="98" y="35" type="line"/>
      <point x="111" y="-85" type="line"/>
      <point x="482" y="370" type="line"/>
      <point x="196" y="800" type="line"/>
      <point x="193" y="740" type="line"/>
      <point x="436" y="740" type="line" smooth="yes"/>
      <point x="495" y="740"/>
      <point x="525" y="739"/>
      <point x="552" y="735" type="curve"/>
      <point x="581" y="588" type="line"/>
      <point x="670" y="588" type="line"/>
      <point x="673" y="827" type="line"/>
      <point x="629" y="824"/>
      <point x="569" y="824"/>
      <point x="533" y="824" type="curve" smooth="yes"/>
      <point x="118" y="824" type="line" smooth="yes"/>
      <point x="80" y="824"/>
      <point x="44" y="825"/>
      <point x="7" y="826" type="curve"/>
      <point x="7" y="751" type="line"/>
      <point x="330" y="277" type="line"/>
      <point x="362" y="392" type="line"/>
      <point x="11" y="-51" type="line"/>
      <point x="11" y="-128" type="line"/>
      <point x="46" y="-127"/>
      <point x="84" y="-126"/>
      <point x="123" y="-126" type="curve" smooth="yes"/>
      <point x="536" y="-126" type="line" smooth="yes"/>
      <point x="574" y="-126"/>
      <point x="634" y="-126"/>
      <point x="677" y="-129" type="curve"/>
      <point x="675" y="164" type="line"/>
    </contour>
  </outline>
</glyph>
<glyph name="topleftHalfBracket" format="2">
  <advance width="800"/>
  <unicode hex="2E22"/>
  <outline>
    <contour>
      <point x="200" y="1300" type="line"/>
      <point x="200" y="210" type="line"/>
      <point x="375" y="210" type="line"/>
      <point x="375" y="1160" type="line"/>
      <point x="650" y="1160" type="line"/>
      <point x="650" y="1300" type="line"/>
    </contour>
  </outline>
</glyph>
<glyph name="_LrgSquareDot" format="2">
  <advance width="603"/>
  <outline>
    <contour>
      <point x="216" y="-276" type="line"/>
      <point x="410" y="-276" type="line"/>
      <point x="410" y="-81" type="line"/>
      <point x="216" y="-81" type="line"/>
    </contour>
  </outline>
</glyph>
<glyph name="_acute.case" format="2">
  <note>
acutecomb.cap
</note>
  <anchor x="420" y="926" name="_above"/>
  <anchor x="420" y="1216" name="above"/>
  <outline>
    <contour>
      <point x="466" y="987" type="line"/>
      <point x="680" y="1170" type="line"/>
      <point x="510" y="1203" type="line"/>
      <point x="375" y="1016" type="line"/>
    </contour>
  </outline>
</glyph>
<glyph name="_beth" format="2">
  <advance width="857"/>
  <outline>
    <contour>
      <point x="50" y="195" type="line"/>
      <point x="52" y="0" type="line"/>
      <point x="796" y="0" type="line" smooth="yes"/>
      <point x="815" y="0"/>
      <point x="818" y="645"/>
      <point x="781" y="645" type="curve" smooth="yes"/>
      <point x="755" y="645"/>
      <point x="753" y="600"/>
      <point x="558" y="600" type="curve" smooth="yes"/>
      <point x="447" y="600" type="line" smooth="yes"/>
      <point x="238" y="600"/>
      <point x="236" y="645"/>
      <point x="220" y="645" type="curve" smooth="yes"/>
      <point x="204" y="645"/>
      <point x="137" y="405"/>
      <point x="266" y="405" type="curve" smooth="yes"/>
      <point x="614" y="405" type="line"/>
      <point x="615" y="195" type="line"/>
    </contour>
  </outline>
</glyph>
<glyph name="_circumflex.case" format="2">
  <note>
uni0302.cap
</note>
  <anchor x="420" y="926" name="_above"/>
  <anchor x="420" y="1217" name="above"/>
  <outline>
    <contour>
      <point x="691" y="1040" type="line"/>
      <point x="497" y="1183" type="line"/>
      <point x="343" y="1183" type="line"/>
      <point x="150" y="1040" type="line"/>
      <point x="221" y="995" type="line"/>
      <point x="467" y="1112" type="line"/>
      <point x="373" y="1112" type="line"/>
      <point x="620" y="995" type="line"/>
    </contour>
  </outline>
</glyph>
<glyph name="_grave.case" format="2">
  <note>
gravecomb.cap
</note>
  <anchor x="420" y="926" name="_above"/>
  <anchor x="420" y="1216" name="above"/>
  <outline>
    <contour>
      <point x="375" y="987" type="line"/>
      <point x="466" y="1016" type="line"/>
      <point x="330" y="1203" type="line"/>
      <point x="161" y="1170" type="line"/>
    </contour>
  </outline>
</glyph>
<glyph name="_heth-init" format="2">
  <advance width="552"/>
  <anchor x="-37" y="585" name="above"/>
  <anchor x="-52" y="525" name="aboveleft"/>
  <anchor x="-22" y="-165" name="below"/>
  <anchor x="-52" y="-150" name="belowleft"/>
  <outline>
    <contour>
      <point x="479" y="190" type="curve"/>
      <point x="150" y="369"/>
      <point x="163" y="417"/>
      <point x="150" y="417" type="curve" smooth="yes"/>
      <point x="125" y="417"/>
      <point x="100" y="234"/>
      <point x="100" y="189" type="curve"/>
      <point x="184" y="150"/>
      <point x="395" y="0"/>
      <point x="429" y="0" type="curve" smooth="yes"/>
      <point x="460" y="0"/>
      <point x="484" y="114"/>
      <point x="484" y="165" type="curve" smooth="yes"/>
      <point x="484" y="177"/>
      <point x="484" y="188"/>
    </contour>
  </outline>
</glyph>
<glyph name="_heth-med.1" format="2">
  <advance width="622"/>
  <anchor x="-37" y="585" name="above"/>
  <anchor x="-52" y="525" name="aboveleft"/>
  <anchor x="-22" y="-165" name="below"/>
  <anchor x="-52" y="-150" name="belowleft"/>
  <outline>
    <contour>
      <point x="100" y="211" type="curve"/>
      <point x="126" y="199"/>
      <point x="295" y="0"/>
      <point x="469" y="0" type="curve" smooth="yes"/>
      <point x="484" y="0"/>
      <point x="516" y="0"/>
      <point x="522" y="0" type="curve"/>
      <point x="522" y="195" type="line"/>
      <point x="505" y="195" type="line" smooth="yes"/>
      <point x="480" y="195"/>
      <point x="414" y="199"/>
      <point x="366" y="233" type="curve" smooth="yes"/>
      <point x="204" y="347"/>
      <point x="150" y="402"/>
      <point x="130" y="436" type="curve"/>
      <point x="124" y="398"/>
      <point x="100" y="256"/>
    </contour>
  </outline>
</glyph>
<glyph name="_heth-med" format="2">
  <advance width="623"/>
  <anchor x="302" y="585" name="above"/>
  <anchor x="287" y="525" name="aboveleft"/>
  <anchor x="317" y="-165" name="below"/>
  <anchor x="287" y="-150" name="belowleft"/>
  <outline>
    <contour>
      <point x="520" y="187" type="curve"/>
      <point x="175" y="342"/>
      <point x="163" y="417"/>
      <point x="150" y="417" type="curve" smooth="yes"/>
      <point x="125" y="417"/>
      <point x="100" y="234"/>
      <point x="100" y="189" type="curve"/>
      <point x="133" y="161"/>
      <point x="436" y="0"/>
      <point x="470" y="0" type="curve" smooth="yes"/>
      <point x="501" y="0"/>
      <point x="525" y="111"/>
      <point x="525" y="162" type="curve" smooth="yes"/>
      <point x="525" y="174"/>
      <point x="525" y="185"/>
    </contour>
  </outline>
</glyph>
<glyph name="_hungarumlaut" format="2">
  <note>
uni030B
</note>
  <anchor x="420" y="618" name="_above"/>
  <anchor x="420" y="964" name="above"/>
  <outline>
    <contour>
      <point x="549" y="678" type="line"/>
      <point x="687" y="923" type="line"/>
      <point x="556" y="950" type="line"/>
      <point x="473" y="704" type="line"/>
    </contour>
    <contour>
      <point x="368" y="678" type="line"/>
      <point x="507" y="923" type="line"/>
      <point x="376" y="950" type="line"/>
      <point x="292" y="704" type="line"/>
    </contour>
  </outline>
</glyph>
<glyph name="_jdotless" format="2">
  <advance width="411"/>
  <note>
uni0237
</note>
  <anchor x="211" y="618" name="above"/>
  <outline>
    <contour>
      <point x="22" y="-321" type="line"/>
      <point x="179" y="-265"/>
      <point x="309" y="-118"/>
      <point x="309" y="36" type="curve"/>
      <point x="307" y="392" type="line"/>
      <point x="307" y="490"/>
      <point x="309" y="547"/>
      <point x="315" y="601" type="curve"/>
      <point x="276" y="626" type="line"/>
      <point x="12" y="561" type="line"/>
      <point x="12" y="497" type="line"/>
      <point x="105" y="476" type="line"/>
      <point x="113" y="433"/>
      <point x="117" y="397"/>
      <point x="117" y="333" type="curve"/>
      <point x="115" y="-15" type="line"/>
      <point x="115" y="-129"/>
      <point x="77" y="-201"/>
      <point x="-12" y="-257" type="curve"/>
    </contour>
  </outline>
</glyph>
<glyph name="_qaph" format="2">
  <advance width="830"/>
  <outline>
    <contour>
      <point x="294" y="195" type="line"/>
      <point x="294" y="405" type="line"/>
      <point x="535" y="405" type="line"/>
      <point x="535" y="195" type="line"/>
    </contour>
    <contour>
      <point x="232" y="600" type="line" smooth="yes"/>
      <point x="170" y="600"/>
      <point x="165" y="645"/>
      <point x="145" y="645" type="curve" smooth="yes"/>
      <point x="115" y="645"/>
      <point x="100" y="545"/>
      <point x="100" y="352" type="curve" smooth="yes"/>
      <point x="100" y="167"/>
      <point x="135" y="0"/>
      <point x="287" y="0" type="curve" smooth="yes"/>
      <point x="627" y="0" type="line" smooth="yes"/>
      <point x="694" y="0"/>
      <point x="730" y="27"/>
      <point x="730" y="302" type="curve" smooth="yes"/>
      <point x="730" y="474"/>
      <point x="720" y="645"/>
      <point x="684" y="645" type="curve" smooth="yes"/>
      <point x="662" y="645"/>
      <point x="653" y="600"/>
      <point x="602" y="600" type="curve" smooth="yes"/>
    </contour>
  </outline>
</glyph>
<glyph name="_semkath" format="2">
  <advance width="880"/>
  <anchor x="466" y="780" name="above"/>
  <anchor x="481" y="750" name="aboveleft"/>
  <anchor x="391" y="-150" name="below"/>
  <anchor x="391" y="-150" name="belowleft"/>
  <outline>
    <contour>
      <point x="546" y="436" type="line"/>
      <point x="524" y="532"/>
      <point x="440" y="682"/>
      <point x="277" y="682" type="curve" smooth="yes"/>
      <point x="131" y="682"/>
      <point x="43" y="566"/>
      <point x="43" y="420" type="curve" smooth="yes"/>
      <point x="43" y="232"/>
      <point x="264" y="-12"/>
      <point x="528" y="-12" type="curve" smooth="yes"/>
      <point x="764" y="-12"/>
      <point x="822" y="139"/>
      <point x="822" y="299" type="curve" smooth="yes"/>
      <point x="822" y="459"/>
      <point x="750" y="569"/>
      <point x="629" y="569" type="curve" smooth="yes"/>
      <point x="554" y="569"/>
      <point x="496" y="560"/>
      <point x="411" y="406" type="curve"/>
    </contour>
    <contour>
      <point x="417" y="138" type="line"/>
      <point x="429" y="314"/>
      <point x="499" y="375"/>
      <point x="569" y="375" type="curve" smooth="yes"/>
      <point x="613" y="375"/>
      <point x="652" y="351"/>
      <point x="652" y="287" type="curve" smooth="yes"/>
      <point x="652" y="237"/>
      <point x="628" y="182"/>
      <point x="520" y="182" type="curve" smooth="yes"/>
      <point x="436" y="182"/>
      <point x="213" y="251"/>
      <point x="213" y="413" type="curve" smooth="yes"/>
      <point x="213" y="468"/>
      <point x="244" y="487"/>
      <point x="288" y="487" type="curve" smooth="yes"/>
      <point x="337" y="487"/>
      <point x="393" y="440"/>
      <point x="393" y="359" type="curve" smooth="yes"/>
      <point x="393" y="265"/>
      <point x="367" y="198"/>
      <point x="349" y="158" type="curve"/>
    </contour>
    <contour>
      <point x="250" y="195" type="line"/>
      <point x="47" y="195" type="line"/>
      <point x="47" y="0" type="line"/>
      <point x="250" y="0" type="line"/>
    </contour>
  </outline>
</glyph>
<glyph name="_shin" format="2">
  <advance width="995"/>
  <outline>
    <contour>
      <point x="547" y="435" type="curve"/>
      <point x="424" y="435" type="line"/>
      <point x="424" y="195" type="line"/>
      <point x="100" y="195" type="line"/>
      <point x="100" y="0" type="line"/>
      <point x="372" y="0" type="line" smooth="yes"/>
      <point x="430" y="0"/>
      <point x="483" y="31"/>
      <point x="505" y="108" type="curve"/>
      <point x="454" y="94" type="line"/>
      <point x="488" y="31"/>
      <point x="537" y="0"/>
      <point x="611" y="0" type="curve" smooth="yes"/>
      <point x="659" y="0"/>
      <point x="693" y="0"/>
      <point x="876" y="0" type="curve" smooth="yes"/>
      <point x="883" y="0"/>
      <point x="885" y="75"/>
      <point x="885" y="195" type="curve"/>
      <point x="692" y="195" type="line" smooth="yes"/>
      <point x="565" y="195"/>
      <point x="547" y="254"/>
    </contour>
    <contour>
      <point x="725" y="405" type="line" smooth="yes"/>
      <point x="774" y="405"/>
      <point x="777" y="645"/>
      <point x="761" y="645" type="curve" smooth="yes"/>
      <point x="745" y="645"/>
      <point x="743" y="600"/>
      <point x="568" y="600" type="curve" smooth="yes"/>
      <point x="457" y="600" type="line" smooth="yes"/>
      <point x="248" y="600"/>
      <point x="246" y="645"/>
      <point x="230" y="645" type="curve" smooth="yes"/>
      <point x="214" y="645"/>
      <point x="187" y="405"/>
      <point x="256" y="405" type="curve" smooth="yes"/>
    </contour>
  </outline>
</glyph>
<glyph name="_smDotsquare" format="2">
  <advance width="209"/>
  <outline>
    <contour>
      <point x="104" y="-2" type="curve" smooth="yes"/>
      <point x="141" y="-2"/>
      <point x="159" y="16"/>
      <point x="159" y="52" type="curve" smooth="yes"/>
      <point x="159" y="89"/>
      <point x="141" y="107"/>
      <point x="104" y="107" type="curve" smooth="yes"/>
      <point x="68" y="107"/>
      <point x="50" y="89"/>
      <point x="50" y="52" type="curve" smooth="yes"/>
      <point x="50" y="16"/>
      <point x="68" y="-2"/>
    </contour>
  </outline>
</glyph>
<glyph name="alaph-syriac.fin2" format="2">
  <advance width="553"/>
  <anchor x="259" y="975" name="above"/>
  <anchor x="50" y="975" name="aboveleft"/>
  <anchor x="322" y="-360" name="below"/>
  <anchor x="50" y="-360" name="belowleft"/>
  <outline>
    <component base="alaph-syriac"/>
    <contour>
      <point x="294" y="73" type="line"/>
      <point x="110" y="149" type="line"/>
      <point x="54" y="0" type="line"/>
      <point x="120" y="-5"/>
      <point x="154" y="-21"/>
      <point x="209" y="-102" type="curve" smooth="yes"/>
      <point x="253" y="-167"/>
      <point x="265" y="-234"/>
      <point x="283" y="-234" type="curve" smooth="yes"/>
      <point x="289" y="-234"/>
      <point x="294" y="-231"/>
      <point x="294" y="-217" type="curve" smooth="yes"/>
    </contour>
  </outline>
</glyph>
<glyph name="alaph-syriac.med2" format="2">
  <advance width="623"/>
  <anchor x="259" y="975" name="above"/>
  <anchor x="50" y="975" name="aboveleft"/>
  <anchor x="259" y="-150" name="below"/>
  <anchor x="50" y="-150" name="belowleft"/>
  <outline>
    <component base="alaph-syriac"/>
    <contour>
      <point x="547" y="195" type="line"/>
      <point x="547" y="0" type="line"/>
      <point x="643" y="0" type="line"/>
      <point x="643" y="195" type="line"/>
    </contour>
  </outline>
</glyph>
<glyph name="beth-syriac.fina" format="2">
  <advance width="1169"/>
  <anchor x="665" y="795" name="above"/>
  <anchor x="50" y="795" name="aboveleft"/>
  <anchor x="705" y="-150" name="below"/>
  <anchor x="50" y="-150" name="belowleft"/>
  <outline>
    <component base="beth-syriac"/>
    <contour>
      <point x="1049" y="195" type="line"/>
      <point x="1049" y="65"/>
      <point x="1083" y="0"/>
      <point x="1148" y="0" type="curve" smooth="yes"/>
      <point x="1189" y="0" type="line"/>
      <point x="1189" y="195" type="line"/>
    </contour>
  </outline>
</glyph>
<glyph name="beth-syriac.medi" format="2">
  <advance width="931"/>
  <anchor x="555" y="750" name="above"/>
  <anchor x="50" y="750" name="aboveleft"/>
  <anchor x="510" y="-150" name="below"/>
  <anchor x="50" y="-150" name="belowleft"/>
  <outline>
    <component base="beth-syriac.init"/>
    <contour>
      <point x="811" y="195" type="line"/>
      <point x="811" y="65"/>
      <point x="845" y="0"/>
      <point x="930" y="0" type="curve" smooth="yes"/>
      <point x="951" y="0" type="line"/>
      <point x="951" y="195" type="line"/>
    </contour>
  </outline>
</glyph>
<glyph name="dalathrishDotless-syriac.fina" format="2">
  <advance width="652"/>
  <anchor x="282" y="720" name="above"/>
  <anchor x="50" y="720" name="aboveleft"/>
  <anchor x="282" y="-150" name="below"/>
  <anchor x="50" y="-150" name="belowleft"/>
  <outline>
    <component base="dalathrishDotless-syriac"/>
    <contour>
      <point x="529" y="195" type="line"/>
      <point x="591" y="0" type="line"/>
      <point x="672" y="0" type="line"/>
      <point x="672" y="195" type="line"/>
    </contour>
  </outline>
</glyph>
<glyph name="e-syriac.init" format="2">
  <advance width="1095"/>
  <anchor x="340" y="975" name="above"/>
  <anchor x="50" y="975" name="aboveleft"/>
  <anchor x="425" y="-150" name="below"/>
  <anchor x="50" y="-150" name="belowleft"/>
  <outline>
    <contour>
      <point x="589" y="195" type="curve"/>
      <point x="-20" y="195" type="line"/>
      <point x="-20" y="0" type="line"/>
      <point x="470" y="0" type="line" smooth="yes"/>
      <point x="555" y="0"/>
      <point x="589" y="65"/>
    </contour>
    <contour>
      <point x="353" y="752" type="curve"/>
      <point x="353" y="789"/>
      <point x="376" y="859"/>
      <point x="376" y="872" type="curve" smooth="yes"/>
      <point x="376" y="880"/>
      <point x="372" y="883"/>
      <point x="366" y="883" type="curve" smooth="yes"/>
      <point x="344" y="883"/>
      <point x="184" y="638"/>
      <point x="184" y="609" type="curve"/>
      <point x="185" y="586"/>
      <point x="370" y="340"/>
      <point x="524" y="164" type="curve" smooth="yes"/>
      <point x="615" y="60"/>
      <point x="685" y="0"/>
      <point x="815" y="0" type="curve" smooth="yes"/>
      <point x="962" y="0"/>
      <point x="1045" y="108"/>
      <point x="1045" y="228" type="curve" smooth="yes"/>
      <point x="1045" y="314"/>
      <point x="1018" y="357"/>
      <point x="1009" y="357" type="curve" smooth="yes"/>
      <point x="994" y="357"/>
      <point x="998" y="195"/>
      <point x="835" y="195" type="curve" smooth="yes"/>
      <point x="741" y="195"/>
      <point x="683" y="208"/>
      <point x="509" y="478" type="curve" smooth="yes"/>
      <point x="410" y="631"/>
      <point x="353" y="718"/>
    </contour>
  </outline>
</glyph>
<glyph name="e-syriac.medi" format="2">
  <advance width="900"/>
  <anchor x="355" y="975" name="above"/>
  <anchor x="50" y="975" name="aboveleft"/>
  <anchor x="435" y="-150" name="below"/>
  <anchor x="50" y="-150" name="belowleft"/>
  <outline>
    <contour>
      <point x="184" y="609" type="curve" smooth="yes"/>
      <point x="185" y="586"/>
      <point x="370" y="340"/>
      <point x="524" y="164" type="curve" smooth="yes"/>
      <point x="615" y="60"/>
      <point x="665" y="0"/>
      <point x="825" y="0" type="curve" smooth="yes"/>
      <point x="920" y="0" type="line"/>
      <point x="920" y="195" type="line"/>
      <point x="837" y="195" type="line" smooth="yes"/>
      <point x="728" y="195"/>
      <point x="690" y="214"/>
      <point x="455" y="582" type="curve" smooth="yes"/>
      <point x="378" y="703"/>
      <point x="340" y="791"/>
      <point x="326" y="873" type="curve" smooth="yes"/>
      <point x="325" y="878"/>
      <point x="324" y="884"/>
      <point x="321" y="884" type="curve" smooth="yes"/>
      <point x="298" y="884"/>
      <point x="180" y="683"/>
    </contour>
    <contour>
      <point x="589" y="195" type="curve"/>
      <point x="-20" y="195" type="line"/>
      <point x="-20" y="0" type="line"/>
      <point x="470" y="0" type="line" smooth="yes"/>
      <point x="555" y="0"/>
      <point x="589" y="65"/>
    </contour>
  </outline>
</glyph>
<glyph name="four.cv02" format="2">
  <advance width="737"/>
  <outline>
    <contour>
      <point x="591" y="207" type="curve"/>
      <point x="589" y="591" type="line"/>
      <point x="589" y="677"/>
      <point x="592" y="762"/>
      <point x="596" y="829" type="curve"/>
      <point x="485" y="829" type="line"/>
      <point x="27" y="273" type="line"/>
      <point x="39" y="207" type="line"/>
      <point x="710" y="207" type="line"/>
      <point x="710" y="328" type="line"/>
      <point x="169" y="328" type="line"/>
      <point x="176" y="299" type="line"/>
      <point x="421" y="631" type="line"/>
      <point x="400" y="637" type="line"/>
      <point x="400" y="207" type="line"/>
      <point x="400" y="134"/>
      <point x="400" y="113"/>
      <point x="398" y="93" type="curve"/>
      <point x="278" y="70" type="line"/>
      <point x="282" y="0" type="line"/>
      <point x="681" y="0" type="line"/>
      <point x="686" y="70" type="line"/>
      <point x="593" y="93" type="line"/>
      <point x="592" y="113"/>
      <point x="591" y="134"/>
    </contour>
  </outline>
</glyph>
<glyph name="gamal-syriac.init" format="2">
  <advance width="886"/>
  <anchor x="706" y="795" name="above"/>
  <anchor x="50" y="795" name="aboveleft"/>
  <anchor x="465" y="-150" name="below"/>
  <anchor x="50" y="-150" name="belowleft"/>
  <outline>
    <component base="_LrgSquareDot" xOffset="739" yOffset="-191"/>
    <contour>
      <point x="814" y="0" type="line"/>
      <point x="666" y="195" type="line"/>
      <point x="-20" y="195" type="line"/>
      <point x="-20" y="0" type="line"/>
    </contour>
    <contour>
      <point x="417" y="863" type="curve" smooth="yes"/>
      <point x="417" y="900"/>
      <point x="450" y="970"/>
      <point x="450" y="983" type="curve" smooth="yes"/>
      <point x="450" y="991"/>
      <point x="446" y="994"/>
      <point x="440" y="994" type="curve" smooth="yes"/>
      <point x="418" y="994"/>
      <point x="238" y="779"/>
      <point x="238" y="750" type="curve" smooth="yes"/>
      <point x="238" y="706"/>
      <point x="468" y="365"/>
      <point x="618" y="117" type="curve"/>
      <point x="636" y="93"/>
      <point x="684" y="68"/>
      <point x="702" y="44" type="curve"/>
      <point x="810" y="-103"/>
      <point x="887" y="-207"/>
      <point x="966" y="-314" type="curve"/>
      <point x="999" y="-288" type="line"/>
      <point x="675" y="317"/>
      <point x="417" y="808"/>
    </contour>
  </outline>
</glyph>
<glyph name="gamal-syriac.medi" format="2">
  <advance width="907"/>
  <anchor x="676" y="795" name="above"/>
  <anchor x="50" y="795" name="aboveleft"/>
  <anchor x="300" y="-150" name="below"/>
  <anchor x="50" y="-150" name="belowleft"/>
  <outline>
    <component base="_LrgSquareDot" xOffset="502" yOffset="-211"/>
    <contour>
      <point x="679" y="195" type="curve"/>
      <point x="-20" y="195" type="line"/>
      <point x="-20" y="0" type="line"/>
      <point x="560" y="0" type="line" smooth="yes"/>
      <point x="645" y="0"/>
      <point x="679" y="65"/>
    </contour>
    <contour>
      <point x="728" y="-312" type="line"/>
      <point x="749" y="-298" type="line"/>
      <point x="587" y="20" type="line"/>
      <point x="419" y="18" type="line"/>
    </contour>
    <contour>
      <point x="378" y="898" type="curve"/>
      <point x="376" y="915"/>
      <point x="375" y="991"/>
      <point x="354" y="991" type="curve" smooth="yes"/>
      <point x="337" y="991"/>
      <point x="252" y="843"/>
      <point x="204" y="765" type="curve" smooth="yes"/>
      <point x="192" y="744"/>
      <point x="198" y="725"/>
      <point x="198" y="719" type="curve" smooth="yes"/>
      <point x="198" y="688"/>
      <point x="530" y="232"/>
      <point x="560" y="180" type="curve"/>
      <point x="647" y="75" type="line" smooth="yes"/>
      <point x="686" y="28"/>
      <point x="740" y="0"/>
      <point x="803" y="0" type="curve" smooth="yes"/>
      <point x="927" y="0" type="line"/>
      <point x="927" y="195" type="line"/>
      <point x="803" y="195" type="line" smooth="yes"/>
      <point x="735" y="195"/>
      <point x="702" y="213"/>
      <point x="679" y="262" type="curve" smooth="yes"/>
      <point x="549" y="537"/>
      <point x="378" y="855"/>
    </contour>
  </outline>
</glyph>
<glyph name="gamalgarshuni-syriac.fina" format="2">
  <advance width="1135"/>
  <anchor x="907" y="795" name="above"/>
  <anchor x="48" y="795" name="aboveleft"/>
  <anchor x="546" y="-150" name="below"/>
  <anchor x="48" y="-150" name="belowleft"/>
  <outline>
    <component base="gamal-syriac.fina" xOffset="-2"/>
    <contour>
      <point x="717" y="429" type="line"/>
      <point x="672" y="511" type="line"/>
      <point x="421" y="182" type="line"/>
      <point x="526" y="182" type="line"/>
    </contour>
  </outline>
</glyph>
<glyph name="gamalgarshuni-syriac.medi" format="2">
  <advance width="907"/>
  <anchor x="676" y="795" name="above"/>
  <anchor x="50" y="795" name="aboveleft"/>
  <anchor x="300" y="-150" name="below"/>
  <anchor x="50" y="-150" name="belowleft"/>
  <outline>
    <component base="gamal-syriac.medi"/>
    <contour>
      <point x="439" y="429" type="line"/>
      <point x="394" y="511" type="line"/>
      <point x="143" y="182" type="line"/>
      <point x="248" y="182" type="line"/>
    </contour>
  </outline>
</glyph>
<glyph name="he_yudh-syriac.fina" format="2">
  <advance width="1113"/>
  <anchor x="720" y="750" name="above_1"/>
  <anchor x="195" y="840" name="above_2"/>
  <anchor x="675" y="-135" name="below_1"/>
  <anchor x="225" y="-180" name="below_2"/>
  <outline>
    <component base="he_yudh-syriac"/>
    <contour>
      <point x="1030" y="195" type="line"/>
      <point x="1033" y="0" type="line"/>
      <point x="1133" y="0" type="line"/>
      <point x="1133" y="195" type="line"/>
    </contour>
  </outline>
</glyph>
<glyph name="he_yudh-syriac" format="2">
  <advance width="1103"/>
  <anchor x="670" y="765" name="above_1"/>
  <anchor x="145" y="840" name="above_2"/>
  <anchor x="655" y="-150" name="below_1"/>
  <anchor x="175" y="-180" name="below_2"/>
  <outline>
    <component base="he-syriac" xOffset="254"/>
    <contour>
      <point x="454" y="346" type="curve"/>
      <point x="348" y="439"/>
      <point x="225" y="570"/>
      <point x="194" y="570" type="curve" smooth="yes"/>
      <point x="171" y="570"/>
      <point x="147" y="556"/>
      <point x="130" y="541" type="curve" smooth="yes"/>
      <point x="63" y="481"/>
      <point x="50" y="450"/>
      <point x="50" y="424" type="curve" smooth="yes"/>
      <point x="50" y="415"/>
      <point x="57" y="403"/>
      <point x="80" y="383" type="curve" smooth="yes"/>
      <point x="123" y="346"/>
      <point x="203" y="273"/>
      <point x="298" y="186" type="curve"/>
      <point x="290" y="255" type="line"/>
      <point x="221" y="155"/>
      <point x="112" y="53"/>
      <point x="68" y="-9" type="curve" smooth="yes"/>
      <point x="61" y="-18"/>
      <point x="59" y="-28"/>
      <point x="59" y="-37" type="curve" smooth="yes"/>
      <point x="59" y="-61"/>
      <point x="74" y="-75"/>
      <point x="93" y="-75" type="curve" smooth="yes"/>
      <point x="106" y="-75"/>
      <point x="122" y="-68"/>
      <point x="135" y="-53" type="curve" smooth="yes"/>
      <point x="349" y="183"/>
      <point x="443" y="321"/>
    </contour>
  </outline>
</glyph>
<glyph name="integral.rtl" format="2">
  <advance width="506"/>
  <outline>
    <contour>
      <point x="400" y="-322" type="curve" smooth="yes"/>
      <point x="496" y="-322"/>
      <point x="565" y="-278"/>
      <point x="565" y="-216" type="curve" smooth="yes"/>
      <point x="565" y="-175"/>
      <point x="539" y="-153"/>
      <point x="500" y="-153" type="curve" smooth="yes"/>
      <point x="466" y="-153"/>
      <point x="442" y="-166"/>
      <point x="416" y="-191" type="curve" smooth="yes"/>
      <point x="359" y="-243" type="line"/>
      <point x="333" y="-218"/>
      <point x="327" y="-168"/>
      <point x="336" y="-8" type="curve" smooth="yes"/>
      <point x="378" y="796" type="line" smooth="yes"/>
      <point x="388" y="991"/>
      <point x="269" y="1120"/>
      <point x="105" y="1120" type="curve" smooth="yes"/>
      <point x="9" y="1120"/>
      <point x="-59" y="1076"/>
      <point x="-59" y="1014" type="curve" smooth="yes"/>
      <point x="-59" y="973"/>
      <point x="-32" y="950"/>
      <point x="7" y="950" type="curve" smooth="yes"/>
      <point x="39" y="950"/>
      <point x="63" y="962"/>
      <point x="90" y="988" type="curve" smooth="yes"/>
      <point x="147" y="1040" type="line"/>
      <point x="186" y="1017"/>
      <point x="195" y="965"/>
      <point x="188" y="861" type="curve" smooth="yes"/>
      <point x="146" y="98" type="line" smooth="yes"/>
      <point x="131" y="-192"/>
      <point x="249" y="-322"/>
    </contour>
  </outline>
</glyph>
<glyph name="kaph-syriac.cv15" format="2">
  <advance width="845"/>
  <anchor x="357" y="765" name="above"/>
  <anchor x="50" y="765" name="aboveleft"/>
  <anchor x="402" y="-210" name="below"/>
  <anchor x="50" y="-210" name="belowleft"/>
  <outline>
    <contour>
      <point x="173" y="405" type="line"/>
      <point x="198" y="445" type="line"/>
      <point x="377" y="121" type="line"/>
      <point x="334" y="127" type="line"/>
      <point x="404" y="232"/>
      <point x="478" y="284"/>
      <point x="565" y="284" type="curve" smooth="yes"/>
      <point x="718" y="284"/>
      <point x="798" y="194"/>
      <point x="798" y="15" type="curve" smooth="yes"/>
      <point x="798" y="-151"/>
      <point x="627" y="-454"/>
      <point x="523" y="-618" type="curve" smooth="yes"/>
      <point x="490" y="-671"/>
      <point x="469" y="-688"/>
      <point x="461" y="-688" type="curve" smooth="yes"/>
      <point x="458" y="-688"/>
      <point x="457" y="-686"/>
      <point x="457" y="-683" type="curve" smooth="yes"/>
      <point x="457" y="-678"/>
      <point x="460" y="-670"/>
      <point x="466" y="-660" type="curve" smooth="yes"/>
      <point x="520" y="-564"/>
      <point x="668" y="-325"/>
      <point x="668" y="-122" type="curve" smooth="yes"/>
      <point x="668" y="29"/>
      <point x="616" y="88"/>
      <point x="513" y="88" type="curve" smooth="yes"/>
      <point x="389" y="88"/>
      <point x="355" y="21"/>
      <point x="298" y="-60" type="curve" smooth="yes"/>
      <point x="286" y="-77"/>
      <point x="285" y="-86"/>
      <point x="274" y="-86" type="curve" smooth="yes"/>
      <point x="264" y="-86"/>
      <point x="258" y="-78"/>
      <point x="252" y="-65" type="curve" smooth="yes"/>
      <point x="196" y="49"/>
      <point x="53" y="303"/>
      <point x="53" y="333" type="curve" smooth="yes"/>
      <point x="53" y="344"/>
      <point x="55" y="349"/>
      <point x="69" y="370" type="curve" smooth="yes"/>
      <point x="91" y="401"/>
      <point x="155" y="490"/>
      <point x="208" y="566" type="curve" smooth="yes"/>
      <point x="229" y="597"/>
      <point x="248" y="600"/>
      <point x="284" y="600" type="curve" smooth="yes"/>
      <point x="501" y="600" type="line" smooth="yes"/>
      <point x="551" y="600"/>
      <point x="567" y="680"/>
      <point x="600" y="680" type="curve" smooth="yes"/>
      <point x="609" y="680"/>
      <point x="612" y="677"/>
      <point x="612" y="664" type="curve" smooth="yes"/>
      <point x="612" y="405" type="line"/>
    </contour>
  </outline>
</glyph>
<glyph name="kaph-syriac.fina" format="2">
  <advance width="934"/>
  <anchor x="323" y="705" name="above"/>
  <anchor x="50" y="705" name="aboveleft"/>
  <anchor x="328" y="-375" name="below"/>
  <anchor x="50" y="-375" name="belowleft"/>
  <outline>
    <contour>
      <point x="859" y="-348" type="curve"/>
      <point x="786" y="-348"/>
      <point x="459" y="-5"/>
      <point x="126" y="328" type="curve"/>
      <point x="122" y="316" type="line"/>
      <point x="488" y="316"/>
      <point x="505" y="316"/>
      <point x="537" y="372" type="curve"/>
      <point x="515" y="396" type="line"/>
      <point x="540" y="63" type="line" smooth="yes"/>
      <point x="544" y="13"/>
      <point x="546" y="0"/>
      <point x="571" y="0" type="curve" smooth="yes"/>
      <point x="944" y="0" type="line"/>
      <point x="944" y="195" type="line"/>
      <point x="549" y="195" type="line"/>
      <point x="586" y="150" type="line"/>
      <point x="559" y="530" type="line" smooth="yes"/>
      <point x="556" y="607"/>
      <point x="552" y="624"/>
      <point x="541" y="624" type="curve" smooth="yes"/>
      <point x="529" y="624"/>
      <point x="508" y="514"/>
      <point x="448" y="513" type="curve" smooth="yes"/>
      <point x="194" y="511"/>
      <point x="209" y="511"/>
      <point x="194" y="511" type="curve" smooth="yes"/>
      <point x="171" y="511"/>
      <point x="160" y="500"/>
      <point x="154" y="479" type="curve" smooth="yes"/>
      <point x="85" y="244"/>
      <point x="50" y="194"/>
      <point x="50" y="153" type="curve" smooth="yes"/>
      <point x="50" y="135"/>
      <point x="707" y="-513"/>
      <point x="747" y="-513" type="curve" smooth="yes"/>
      <point x="776" y="-513"/>
      <point x="991" y="-333"/>
      <point x="991" y="-311" type="curve" smooth="yes"/>
      <point x="991" y="-305"/>
      <point x="988" y="-301"/>
      <point x="980" y="-301" type="curve" smooth="yes"/>
      <point x="967" y="-301"/>
      <point x="899" y="-348"/>
    </contour>
  </outline>
</glyph>
<glyph name="kaph-syriac.medi" format="2">
  <advance width="889"/>
  <anchor x="425" y="750" name="above"/>
  <anchor x="50" y="750" name="aboveleft"/>
  <anchor x="425" y="-150" name="below"/>
  <anchor x="50" y="-150" name="belowleft"/>
  <outline>
    <component base="kaph-syriac.init"/>
    <contour>
      <point x="769" y="195" type="line"/>
      <point x="769" y="65"/>
      <point x="803" y="0"/>
      <point x="888" y="0" type="curve" smooth="yes"/>
      <point x="909" y="0" type="line"/>
      <point x="909" y="195" type="line"/>
    </contour>
  </outline>
</glyph>
<glyph name="lamadh-syriac.init" format="2">
  <advance width="858"/>
  <anchor x="625" y="930" name="above"/>
  <anchor x="50" y="930" name="aboveleft"/>
  <anchor x="435" y="-150" name="below"/>
  <anchor x="50" y="-150" name="belowleft"/>
  <outline>
    <contour>
      <point x="330" y="988" type="curve"/>
      <point x="330" y="1025"/>
      <point x="363" y="1095"/>
      <point x="363" y="1108" type="curve" smooth="yes"/>
      <point x="363" y="1116"/>
      <point x="359" y="1119"/>
      <point x="353" y="1119" type="curve" smooth="yes"/>
      <point x="331" y="1119"/>
      <point x="151" y="904"/>
      <point x="151" y="875" type="curve" smooth="yes"/>
      <point x="151" y="840"/>
      <point x="472" y="375"/>
      <point x="601" y="161" type="curve"/>
      <point x="606" y="195" type="line"/>
      <point x="-20" y="195" type="line"/>
      <point x="-20" y="0" type="line"/>
      <point x="753" y="0" type="line" smooth="yes"/>
      <point x="784" y="0"/>
      <point x="808" y="98"/>
      <point x="808" y="149" type="curve" smooth="yes"/>
      <point x="808" y="161"/>
      <point x="808" y="169"/>
      <point x="804" y="175" type="curve" smooth="yes"/>
      <point x="621" y="461"/>
      <point x="330" y="933"/>
    </contour>
  </outline>
</glyph>
<glyph name="lamadh-syriac.medi" format="2">
  <advance width="946"/>
  <anchor x="650" y="945" name="above"/>
  <anchor x="50" y="945" name="aboveleft"/>
  <anchor x="440" y="-150" name="below"/>
  <anchor x="50" y="-150" name="belowleft"/>
  <outline>
    <contour>
      <point x="154" y="875" type="curve" smooth="yes"/>
      <point x="155" y="852"/>
      <point x="366" y="530"/>
      <point x="620" y="164" type="curve" smooth="yes"/>
      <point x="699" y="50"/>
      <point x="753" y="0"/>
      <point x="893" y="0" type="curve" smooth="yes"/>
      <point x="966" y="0" type="line"/>
      <point x="966" y="195" type="line"/>
      <point x="891" y="195" type="line" smooth="yes"/>
      <point x="802" y="195"/>
      <point x="738" y="298"/>
      <point x="478" y="751" type="curve" smooth="yes"/>
      <point x="359" y="958"/>
      <point x="337" y="1013"/>
      <point x="323" y="1123" type="curve" smooth="yes"/>
      <point x="322" y="1128"/>
      <point x="321" y="1134"/>
      <point x="318" y="1134" type="curve" smooth="yes"/>
      <point x="300" y="1134"/>
      <point x="150" y="949"/>
    </contour>
    <contour>
      <point x="679" y="195" type="curve"/>
      <point x="-20" y="195" type="line"/>
      <point x="-20" y="0" type="line"/>
      <point x="560" y="0" type="line" smooth="yes"/>
      <point x="645" y="0"/>
      <point x="679" y="65"/>
    </contour>
  </outline>
</glyph>
<glyph name="lamadh_alaph-syriac.fina" format="2">
  <advance width="1502"/>
  <anchor x="1155" y="990" name="above_1"/>
  <anchor x="360" y="960" name="above_2"/>
  <anchor x="1035" y="-150" name="below_1"/>
  <anchor x="450" y="-150" name="below_2"/>
  <outline>
    <component base="alaph-syriac.ccmp" xOffset="80"/>
    <contour>
      <point x="710" y="875" type="curve" smooth="yes"/>
      <point x="711" y="852"/>
      <point x="922" y="530"/>
      <point x="1176" y="164" type="curve" smooth="yes"/>
      <point x="1255" y="50"/>
      <point x="1309" y="0"/>
      <point x="1449" y="0" type="curve" smooth="yes"/>
      <point x="1522" y="0" type="line"/>
      <point x="1522" y="195" type="line"/>
      <point x="1447" y="195" type="line" smooth="yes"/>
      <point x="1358" y="195"/>
      <point x="1294" y="298"/>
      <point x="1034" y="751" type="curve" smooth="yes"/>
      <point x="915" y="958"/>
      <point x="893" y="1013"/>
      <point x="879" y="1123" type="curve" smooth="yes"/>
      <point x="878" y="1128"/>
      <point x="877" y="1134"/>
      <point x="874" y="1134" type="curve" smooth="yes"/>
      <point x="856" y="1134"/>
      <point x="706" y="949"/>
    </contour>
    <contour>
      <point x="1249" y="195" type="curve"/>
      <point x="550" y="195" type="line"/>
      <point x="550" y="0" type="line"/>
      <point x="1130" y="0" type="line" smooth="yes"/>
      <point x="1215" y="0"/>
      <point x="1249" y="65"/>
    </contour>
  </outline>
</glyph>
<glyph name="mim-syriac.cv17" format="2">
  <advance width="958"/>
  <anchor x="537" y="735" name="above"/>
  <anchor x="50" y="735" name="aboveleft"/>
  <anchor x="552" y="-150" name="below"/>
  <anchor x="50" y="-150" name="belowleft"/>
  <outline>
    <contour>
      <point x="133" y="-134" type="curve" smooth="yes"/>
      <point x="346" y="149" type="line"/>
      <point x="493" y="419" type="line"/>
      <point x="403" y="419" type="line"/>
      <point x="99" y="-112" type="line" smooth="yes"/>
      <point x="93" y="-123"/>
      <point x="90" y="-132"/>
      <point x="90" y="-139" type="curve" smooth="yes"/>
      <point x="90" y="-149"/>
      <point x="95" y="-154"/>
      <point x="103" y="-154" type="curve" smooth="yes"/>
      <point x="111" y="-154"/>
      <point x="122" y="-148"/>
    </contour>
    <contour>
      <point x="898" y="0" type="line" smooth="yes"/>
      <point x="909" y="0"/>
      <point x="908" y="58"/>
      <point x="908" y="109" type="curve" smooth="yes"/>
      <point x="908" y="121"/>
      <point x="907" y="170"/>
      <point x="904" y="175" type="curve" smooth="yes"/>
      <point x="894" y="193"/>
      <point x="873" y="293"/>
      <point x="873" y="384" type="curve" smooth="yes"/>
      <point x="874" y="449"/>
      <point x="882" y="534"/>
      <point x="882" y="587" type="curve" smooth="yes"/>
      <point x="882" y="628"/>
      <point x="878" y="645"/>
      <point x="869" y="645" type="curve" smooth="yes"/>
      <point x="853" y="645"/>
      <point x="851" y="600"/>
      <point x="665" y="600" type="curve" smooth="yes"/>
      <point x="299" y="600" type="line" smooth="yes"/>
      <point x="90" y="600"/>
      <point x="88" y="645"/>
      <point x="72" y="645" type="curve" smooth="yes"/>
      <point x="65" y="645"/>
      <point x="50" y="593"/>
      <point x="50" y="537" type="curve" smooth="yes"/>
      <point x="50" y="474"/>
      <point x="59" y="405"/>
      <point x="118" y="405" type="curve" smooth="yes"/>
      <point x="768" y="405" type="line"/>
      <point x="723" y="450" type="line"/>
      <point x="723" y="150" type="line"/>
      <point x="768" y="195" type="line"/>
      <point x="335" y="195" type="line"/>
      <point x="201" y="0" type="line"/>
    </contour>
  </outline>
</glyph>
<glyph name="mim-syriac.fina" format="2">
  <advance width="978"/>
  <anchor x="554" y="750" name="above"/>
  <anchor x="49" y="750" name="aboveleft"/>
  <anchor x="584" y="-150" name="below"/>
  <anchor x="49" y="-150" name="belowleft"/>
  <outline>
    <component base="mim-syriac.cv17" xOffset="-1"/>
    <contour>
      <point x="825" y="195" type="line"/>
      <point x="828" y="0" type="line"/>
      <point x="998" y="0" type="line"/>
      <point x="998" y="195" type="line"/>
    </contour>
  </outline>
</glyph>
<glyph name="mim-syriac.init" format="2">
  <advance width="1023"/>
  <anchor x="510" y="765" name="above"/>
  <anchor x="50" y="765" name="aboveleft"/>
  <anchor x="540" y="-150" name="below"/>
  <anchor x="50" y="-150" name="belowleft"/>
  <outline>
    <contour>
      <point x="705" y="-10" type="curve" smooth="yes"/>
      <point x="885" y="-10"/>
      <point x="973" y="44"/>
      <point x="973" y="256" type="curve" smooth="yes"/>
      <point x="973" y="487"/>
      <point x="829" y="612"/>
      <point x="686" y="612" type="curve" smooth="yes"/>
      <point x="541" y="612"/>
      <point x="419" y="486"/>
      <point x="419" y="274" type="curve" smooth="yes"/>
      <point x="419" y="78"/>
      <point x="524" y="-10"/>
    </contour>
    <contour>
      <point x="804" y="214"/>
      <point x="773" y="183"/>
      <point x="700" y="183" type="curve" smooth="yes"/>
      <point x="623" y="183"/>
      <point x="584" y="219"/>
      <point x="584" y="292" type="curve" smooth="yes"/>
      <point x="584" y="367"/>
      <point x="637" y="416"/>
      <point x="691" y="416" type="curve" smooth="yes"/>
      <point x="740" y="416"/>
      <point x="804" y="376"/>
      <point x="804" y="276" type="curve" smooth="yes"/>
    </contour>
    <contour>
      <point x="499" y="195" type="curve"/>
      <point x="-20" y="195" type="line"/>
      <point x="-20" y="0" type="line"/>
      <point x="380" y="0" type="line" smooth="yes"/>
      <point x="465" y="0"/>
      <point x="499" y="65"/>
    </contour>
    <contour>
      <point x="226" y="645" type="curve"/>
      <point x="226" y="688"/>
      <point x="239" y="724"/>
      <point x="236" y="737" type="curve" smooth="yes"/>
      <point x="235" y="745"/>
      <point x="230" y="747"/>
      <point x="224" y="746" type="curve" smooth="yes"/>
      <point x="203" y="742"/>
      <point x="112" y="543"/>
      <point x="112" y="490" type="curve" smooth="yes"/>
      <point x="112" y="422"/>
      <point x="453" y="254"/>
      <point x="469" y="243" type="curve"/>
      <point x="504" y="448" type="line"/>
      <point x="387" y="518"/>
      <point x="226" y="625"/>
    </contour>
  </outline>
</glyph>
<glyph name="nun-syriac.cv18" format="2">
  <advance width="662"/>
  <anchor x="228" y="450" name="above"/>
  <anchor x="50" y="450" name="aboveleft"/>
  <anchor x="213" y="-150" name="below"/>
  <anchor x="50" y="-150" name="belowleft"/>
  <outline>
    <contour>
      <point x="804" y="-523"/>
      <point x="809" y="-526"/>
      <point x="814" y="-526" type="curve" smooth="yes"/>
      <point x="820" y="-526"/>
      <point x="825" y="-521"/>
      <point x="825" y="-515" type="curve" smooth="yes"/>
      <point x="825" y="-511"/>
      <point x="824" y="-507"/>
      <point x="820" y="-502" type="curve" smooth="yes"/>
      <point x="638" y="-265"/>
      <point x="298" y="178"/>
      <point x="232" y="260" type="curve" smooth="yes"/>
      <point x="224" y="270"/>
      <point x="215" y="274"/>
      <point x="206" y="274" type="curve" smooth="yes"/>
      <point x="195" y="274"/>
      <point x="185" y="269"/>
      <point x="175" y="263" type="curve" smooth="yes"/>
      <point x="151" y="247"/>
      <point x="82" y="197"/>
      <point x="43" y="170" type="curve"/>
      <point x="69" y="135"/>
      <point x="151" y="27"/>
      <point x="190" y="-25" type="curve"/>
      <point x="217" y="-4"/>
      <point x="296" y="52"/>
      <point x="327" y="78" type="curve"/>
      <point x="237" y="109" type="line"/>
      <point x="395" y="-59"/>
      <point x="591" y="-286"/>
      <point x="798" y="-517" type="curve" smooth="yes"/>
    </contour>
  </outline>
</glyph>
<glyph name="nun-syriac.init" format="2">
  <advance width="667"/>
  <anchor x="345" y="765" name="above"/>
  <anchor x="50" y="765" name="aboveleft"/>
  <anchor x="375" y="-150" name="below"/>
  <anchor x="50" y="-150" name="belowleft"/>
  <outline>
    <contour>
      <point x="477" y="455" type="curve"/>
      <point x="355" y="455" type="line"/>
      <point x="355" y="195" type="line"/>
      <point x="-20" y="195" type="line"/>
      <point x="-20" y="0" type="line"/>
      <point x="617" y="0" type="line"/>
      <point x="617" y="195" type="line"/>
      <point x="612" y="195"/>
      <point x="606" y="195"/>
      <point x="601" y="195" type="curve" smooth="yes"/>
      <point x="575" y="195"/>
      <point x="505" y="305"/>
    </contour>
    <contour>
      <point x="247" y="405" type="curve" smooth="yes"/>
      <point x="474" y="408" type="line"/>
      <point x="483" y="430"/>
      <point x="531" y="563"/>
      <point x="531" y="582" type="curve" smooth="yes"/>
      <point x="531" y="594"/>
      <point x="520" y="600"/>
      <point x="497" y="600" type="curve" smooth="yes"/>
      <point x="302" y="600" type="line" smooth="yes"/>
      <point x="283" y="600"/>
      <point x="270" y="597"/>
      <point x="259" y="571" type="curve" smooth="yes"/>
      <point x="237" y="515"/>
      <point x="206" y="441"/>
      <point x="206" y="430" type="curve" smooth="yes"/>
      <point x="206" y="405"/>
      <point x="224" y="405"/>
    </contour>
  </outline>
</glyph>
<glyph name="one.cv02" format="2">
  <advance width="737"/>
  <outline>
    <contour>
      <point x="475" y="310" type="curve" smooth="yes"/>
      <point x="475" y="495" type="line" smooth="yes"/>
      <point x="475" y="639"/>
      <point x="479" y="759"/>
      <point x="486" y="842" type="curve"/>
      <point x="133" y="707" type="line"/>
      <point x="138" y="619" type="line"/>
      <point x="273" y="648" type="line"/>
      <point x="277" y="619"/>
      <point x="280" y="537"/>
      <point x="280" y="459" type="curve" smooth="yes"/>
      <point x="280" y="310" type="line" smooth="yes"/>
      <point x="280" y="210"/>
      <point x="276" y="108"/>
      <point x="272" y="93" type="curve"/>
      <point x="152" y="70" type="line"/>
      <point x="156" y="0" type="line"/>
      <point x="600" y="0" type="line"/>
      <point x="604" y="70" type="line"/>
      <point x="485" y="93" type="line"/>
      <point x="480" y="108"/>
      <point x="475" y="208"/>
    </contour>
  </outline>
</glyph>
<glyph name="qaph-syriac.medi" format="2">
  <advance width="869"/>
  <anchor x="480" y="780" name="above"/>
  <anchor x="50" y="780" name="aboveleft"/>
  <anchor x="540" y="-150" name="below"/>
  <anchor x="50" y="-150" name="belowleft"/>
  <outline>
    <component base="_qaph" xOffset="100"/>
    <contour>
      <point x="749" y="195" type="line"/>
      <point x="749" y="65"/>
      <point x="783" y="0"/>
      <point x="868" y="0" type="curve" smooth="yes"/>
      <point x="889" y="0" type="line"/>
      <point x="889" y="195" type="line"/>
    </contour>
    <contour>
      <point x="265" y="195" type="curve"/>
      <point x="-20" y="195" type="line"/>
      <point x="-20" y="0" type="line"/>
      <point x="147" y="0" type="line" smooth="yes"/>
      <point x="230" y="0"/>
      <point x="271" y="65"/>
    </contour>
  </outline>
</glyph>
<glyph name="radical.rtl" format="2">
  <advance width="896"/>
  <outline>
    <contour>
      <point x="396" y="-131" type="line"/>
      <point x="466" y="-131" type="line"/>
      <point x="764" y="526" type="line"/>
      <point x="853" y="547" type="line"/>
      <point x="850" y="618" type="line"/>
      <point x="572" y="621" type="line"/>
      <point x="562" y="588"/>
      <point x="552" y="563"/>
      <point x="535" y="519" type="curve" smooth="yes"/>
      <point x="348" y="66" type="line"/>
      <point x="406" y="67" type="line"/>
      <point x="110" y="966" type="line"/>
      <point x="-8" y="966" type="line"/>
    </contour>
  </outline>
</glyph>
<glyph name="rish-syriac.fina" format="2">
  <advance width="646"/>
  <anchor x="282" y="1005" name="above"/>
  <anchor x="47" y="1005" name="aboveleft"/>
  <anchor x="307" y="-150" name="below"/>
  <anchor x="47" y="-150" name="belowleft"/>
  <outline>
    <component base="dalathrishDotless-syriac.fina" xOffset="-7"/>
    <component base="_LrgSquareDot" xOffset="-73" yOffset="990"/>
    <contour>
      <point x="523" y="195" type="line"/>
      <point x="585" y="0" type="line"/>
      <point x="666" y="0" type="line"/>
      <point x="666" y="195" type="line"/>
    </contour>
  </outline>
</glyph>
<glyph name="sadhe-syriac.fina" format="2">
  <advance width="736"/>
  <anchor x="312" y="420" name="above"/>
  <anchor x="28" y="420" name="aboveleft"/>
  <anchor x="432" y="-585" name="below"/>
  <anchor x="28" y="-585" name="belowleft"/>
  <outline>
    <component base="sadhe-syriac"/>
    <contour>
      <point x="589" y="260" type="curve"/>
      <point x="574" y="55" type="line"/>
      <point x="612" y="18"/>
      <point x="653" y="0"/>
      <point x="696" y="0" type="curve" smooth="yes"/>
      <point x="756" y="0" type="line"/>
      <point x="756" y="195" type="line"/>
      <point x="696" y="195" type="line" smooth="yes"/>
      <point x="662" y="195"/>
      <point x="637" y="200"/>
    </contour>
  </outline>
</glyph>
<glyph name="sadhe_nun-syriac.fina" format="2">
  <advance width="1099"/>
  <outline>
    <component base="sadhe_nun-syriac"/>
    <contour>
      <point x="952" y="260" type="curve"/>
      <point x="937" y="55" type="line"/>
      <point x="975" y="18"/>
      <point x="1016" y="0"/>
      <point x="1059" y="0" type="curve" smooth="yes"/>
      <point x="1119" y="0" type="line"/>
      <point x="1119" y="195" type="line"/>
      <point x="1059" y="195" type="line" smooth="yes"/>
      <point x="1025" y="195"/>
      <point x="1000" y="200"/>
    </contour>
  </outline>
</glyph>
<glyph name="sadhe_nun-syriac" format="2">
  <advance width="1168"/>
  <anchor x="676" y="420" name="above_1"/>
  <anchor x="181" y="270" name="above_2"/>
  <anchor x="766" y="-675" name="below_1"/>
  <anchor x="286" y="-675" name="below_2"/>
  <outline>
    <contour>
      <point x="831" y="-509" type="line" smooth="yes"/>
      <point x="850" y="-509"/>
      <point x="871" y="-509"/>
      <point x="892" y="-509" type="curve" smooth="yes"/>
      <point x="967" y="-509"/>
      <point x="1059" y="-489"/>
      <point x="1059" y="-464" type="curve" smooth="yes"/>
      <point x="1059" y="-438"/>
      <point x="1059" y="-405"/>
      <point x="1059" y="-381" type="curve" smooth="yes"/>
      <point x="1059" y="-362"/>
      <point x="1054" y="-350"/>
      <point x="1003" y="-318" type="curve" smooth="yes"/>
      <point x="862" y="-231"/>
      <point x="690" y="-62"/>
      <point x="645" y="80" type="curve"/>
      <point x="569" y="34" type="line"/>
      <point x="608" y="11"/>
      <point x="666" y="-2"/>
      <point x="745" y="-2" type="curve" smooth="yes"/>
      <point x="854" y="-2"/>
      <point x="926" y="2"/>
      <point x="969" y="114" type="curve"/>
      <point x="911" y="80" type="line"/>
      <point x="957" y="26"/>
      <point x="1010" y="0"/>
      <point x="1053" y="0" type="curve"/>
      <point x="1052" y="121" type="line" smooth="yes"/>
      <point x="1052" y="141"/>
      <point x="906" y="325"/>
      <point x="887" y="325" type="curve" smooth="yes"/>
      <point x="822" y="325"/>
      <point x="861" y="195"/>
      <point x="727" y="195" type="curve" smooth="yes"/>
      <point x="582" y="195"/>
      <point x="546" y="238"/>
      <point x="506" y="299" type="curve" smooth="yes"/>
      <point x="497" y="312"/>
      <point x="493" y="325"/>
      <point x="477" y="325" type="curve" smooth="yes"/>
      <point x="458" y="325"/>
      <point x="429" y="287"/>
      <point x="427" y="222" type="curve" smooth="yes"/>
      <point x="421" y="-14"/>
      <point x="552" y="-224"/>
      <point x="891" y="-460" type="curve"/>
      <point x="898" y="-431" type="line"/>
      <point x="652" y="-440"/>
      <point x="407" y="-437"/>
      <point x="161" y="-459" type="curve" smooth="yes"/>
      <point x="65" y="-468"/>
      <point x="56" y="-471"/>
      <point x="56" y="-485" type="curve" smooth="yes"/>
      <point x="56" y="-495"/>
      <point x="64" y="-509"/>
      <point x="242" y="-509" type="curve" smooth="yes"/>
    </contour>
    <contour>
      <point x="573" y="-198" type="curve" smooth="yes"/>
      <point x="730" y="-193"/>
      <point x="825" y="-188"/>
      <point x="1045" y="-166" type="curve" smooth="yes"/>
      <point x="1062" y="-164"/>
      <point x="1071" y="-158"/>
      <point x="1071" y="-146" type="curve" smooth="yes"/>
      <point x="1071" y="-132"/>
      <point x="1063" y="-127"/>
      <point x="1046" y="-127" type="curve" smooth="yes"/>
      <point x="703" y="-117"/>
      <point x="668" y="-99"/>
      <point x="593" y="-95" type="curve" smooth="yes"/>
      <point x="376" y="-83"/>
      <point x="254" y="114"/>
      <point x="153" y="114" type="curve" smooth="yes"/>
      <point x="111" y="114"/>
      <point x="60" y="69"/>
      <point x="60" y="20" type="curve" smooth="yes"/>
      <point x="60" y="-189"/>
      <point x="454" y="-202"/>
    </contour>
  </outline>
</glyph>
<glyph name="semkath-syriac.fina" format="2">
  <advance width="1206"/>
  <anchor x="818" y="780" name="above"/>
  <anchor x="50" y="780" name="aboveleft"/>
  <anchor x="758" y="-150" name="below"/>
  <anchor x="50" y="-150" name="belowleft"/>
  <outline>
    <component base="semkath-syriac" xOffset="52"/>
    <contour>
      <point x="936" y="195" type="line"/>
      <point x="1097" y="0" type="line"/>
      <point x="1226" y="0" type="line"/>
      <point x="1226" y="195" type="line"/>
    </contour>
  </outline>
</glyph>
<glyph name="semkath-syriac.init" format="2">
  <advance width="1014"/>
  <anchor x="615" y="780" name="above"/>
  <anchor x="50" y="780" name="aboveleft"/>
  <anchor x="540" y="-150" name="below"/>
  <anchor x="50" y="-150" name="belowleft"/>
  <outline>
    <component base="_semkath" xOffset="142"/>
    <contour>
      <point x="222" y="0" type="line"/>
      <point x="222" y="195" type="line"/>
      <point x="-20" y="195" type="line"/>
      <point x="-20" y="0" type="line"/>
    </contour>
  </outline>
</glyph>
<glyph name="semkath-syriac.medi" format="2">
  <advance width="1052"/>
  <anchor x="645" y="780" name="above"/>
  <anchor x="50" y="780" name="aboveleft"/>
  <anchor x="540" y="-150" name="below"/>
  <anchor x="50" y="-150" name="belowleft"/>
  <outline>
    <component base="semkath-syriac.init"/>
    <contour>
      <point x="832" y="195" type="line"/>
      <point x="832" y="65"/>
      <point x="866" y="0"/>
      <point x="951" y="0" type="curve" smooth="yes"/>
      <point x="1072" y="0" type="line"/>
      <point x="1072" y="195" type="line"/>
    </contour>
  </outline>
</glyph>
<glyph name="seven.latn" format="2">
  <advance width="737"/>
  <outline>
    <contour>
      <point x="364" y="0" type="line"/>
      <point x="666" y="753" type="line"/>
      <point x="661" y="825" type="line"/>
      <point x="626" y="825"/>
      <point x="588" y="824"/>
      <point x="557" y="824" type="curve" smooth="yes"/>
      <point x="294" y="824" type="line" smooth="yes"/>
      <point x="249" y="824"/>
      <point x="152" y="826"/>
      <point x="98" y="827" type="curve"/>
      <point x="70" y="569" type="line"/>
      <point x="157" y="562" type="line"/>
      <point x="182" y="656" type="line"/>
      <point x="205" y="659"/>
      <point x="238" y="661"/>
      <point x="258" y="661" type="curve" smooth="yes"/>
      <point x="557" y="661" type="line"/>
      <point x="557" y="718" type="line"/>
      <point x="208" y="55" type="line"/>
      <point x="208" y="0" type="line"/>
    </contour>
  </outline>
</glyph>
<glyph name="six.cv02" format="2">
  <advance width="737"/>
  <outline>
    <contour>
      <point x="222" y="369" type="curve"/>
      <point x="223" y="302" type="line"/>
      <point x="248" y="335"/>
      <point x="307" y="378"/>
      <point x="369" y="378" type="curve" smooth="yes"/>
      <point x="445" y="378"/>
      <point x="491" y="314"/>
      <point x="491" y="214" type="curve" smooth="yes"/>
      <point x="491" y="136"/>
      <point x="447" y="74"/>
      <point x="386" y="74" type="curve" smooth="yes"/>
      <point x="312" y="74"/>
      <point x="255" y="175"/>
      <point x="255" y="301" type="curve" smooth="yes"/>
      <point x="255" y="563"/>
      <point x="370" y="701"/>
      <point x="630" y="762" type="curve"/>
      <point x="606" y="849" type="line"/>
      <point x="257" y="819"/>
      <point x="53" y="578"/>
      <point x="53" y="322" type="curve" smooth="yes"/>
      <point x="53" y="136"/>
      <point x="183" y="-12"/>
      <point x="371" y="-12" type="curve" smooth="yes"/>
      <point x="550" y="-12"/>
      <point x="683" y="112"/>
      <point x="683" y="272" type="curve" smooth="yes"/>
      <point x="683" y="409"/>
      <point x="579" y="515"/>
      <point x="447" y="515" type="curve" smooth="yes"/>
      <point x="371" y="515"/>
      <point x="286" y="452"/>
    </contour>
  </outline>
</glyph>
<glyph name="taw-syriac.fina" format="2">
  <advance width="959"/>
  <anchor x="305" y="975" name="above"/>
  <anchor x="50" y="975" name="aboveleft"/>
  <anchor x="365" y="-150" name="below"/>
  <anchor x="50" y="-150" name="belowleft"/>
  <outline>
    <contour>
      <point x="274" y="828" type="curve" smooth="yes"/>
      <point x="259" y="828"/>
      <point x="249" y="818"/>
      <point x="240" y="793" type="curve" smooth="yes"/>
      <point x="237" y="784"/>
      <point x="53" y="190"/>
      <point x="53" y="100" type="curve" smooth="yes"/>
      <point x="53" y="-2"/>
      <point x="121" y="-18"/>
      <point x="160" y="-18" type="curve" smooth="yes"/>
      <point x="242" y="-18"/>
      <point x="359" y="92"/>
      <point x="426" y="92" type="curve" smooth="yes"/>
      <point x="513" y="92"/>
      <point x="551" y="-23"/>
      <point x="602" y="-23" type="curve" smooth="yes"/>
      <point x="614" y="-23"/>
      <point x="618" y="-16"/>
      <point x="618" y="-1" type="curve" smooth="yes"/>
      <point x="618" y="53"/>
      <point x="442" y="289"/>
      <point x="208" y="289" type="curve" smooth="yes"/>
      <point x="178" y="289"/>
      <point x="146" y="286"/>
      <point x="115" y="278" type="curve"/>
      <point x="109" y="150" type="line"/>
      <point x="162" y="307"/>
      <point x="209" y="465"/>
      <point x="262" y="622" type="curve"/>
      <point x="212" y="613" type="line"/>
      <point x="307" y="519"/>
      <point x="502" y="324"/>
      <point x="655" y="166" type="curve" smooth="yes"/>
      <point x="764" y="53"/>
      <point x="818" y="0"/>
      <point x="891" y="0" type="curve" smooth="yes"/>
      <point x="979" y="0" type="line"/>
      <point x="979" y="195" type="line"/>
      <point x="946" y="195" type="line" smooth="yes"/>
      <point x="922" y="195"/>
      <point x="883" y="206"/>
      <point x="848" y="241" type="curve" smooth="yes"/>
      <point x="618" y="471"/>
      <point x="421" y="692"/>
      <point x="327" y="786" type="curve" smooth="yes"/>
      <point x="297" y="816"/>
      <point x="287" y="828"/>
    </contour>
  </outline>
</glyph>
<glyph name="taw_alaph-syriac.fina.triangle" format="2">
  <advance width="840"/>
  <anchor x="535" y="915" name="above_1"/>
  <anchor x="305" y="975" name="above_2"/>
  <anchor x="610" y="-210" name="below_1"/>
  <anchor x="185" y="-210" name="below_2"/>
  <outline>
    <component base="taw_alaph-syriac.triangle"/>
    <contour>
      <point x="757" y="195" type="line"/>
      <point x="661" y="101" type="line"/>
      <point x="682" y="70"/>
      <point x="803" y="0"/>
      <point x="808" y="0" type="curve" smooth="yes"/>
      <point x="860" y="0" type="line"/>
      <point x="860" y="195" type="line"/>
    </contour>
  </outline>
</glyph>
<glyph name="taw_alaph-syriac.triangle" format="2">
  <advance width="861"/>
  <anchor x="591" y="915" name="above_1"/>
  <anchor x="291" y="975" name="above_2"/>
  <anchor x="651" y="-210" name="below_1"/>
  <anchor x="156" y="-210" name="below_2"/>
  <outline>
    <contour>
      <point x="67" y="-97" type="curve" smooth="yes"/>
      <point x="74" y="-97"/>
      <point x="82" y="-94"/>
      <point x="88" y="-85" type="curve" smooth="yes"/>
      <point x="390" y="384"/>
      <point x="425" y="556"/>
      <point x="425" y="708" type="curve" smooth="yes"/>
      <point x="425" y="777"/>
      <point x="389" y="892"/>
      <point x="301" y="892" type="curve" smooth="yes"/>
      <point x="213" y="892"/>
      <point x="151" y="803"/>
      <point x="151" y="723" type="curve" smooth="yes"/>
      <point x="151" y="658"/>
      <point x="192" y="600"/>
      <point x="292" y="600" type="curve" smooth="yes"/>
      <point x="311" y="600"/>
      <point x="332" y="602"/>
      <point x="355" y="607" type="curve"/>
      <point x="332" y="650" type="line"/>
      <point x="333" y="642"/>
      <point x="333" y="633"/>
      <point x="333" y="624" type="curve" smooth="yes"/>
      <point x="333" y="415"/>
      <point x="172" y="139"/>
      <point x="59" y="-58" type="curve" smooth="yes"/>
      <point x="54" y="-67"/>
      <point x="50" y="-73"/>
      <point x="50" y="-80" type="curve" smooth="yes"/>
      <point x="50" y="-90"/>
      <point x="58" y="-97"/>
    </contour>
    <contour>
      <point x="481" y="-189" type="curve" smooth="yes"/>
      <point x="487" y="-189"/>
      <point x="495" y="-186"/>
      <point x="508" y="-168" type="curve" smooth="yes"/>
      <point x="545" y="-120"/>
      <point x="631" y="0"/>
      <point x="677" y="64" type="curve"/>
      <point x="703" y="99" type="line"/>
      <point x="668" y="130" type="line"/>
      <point x="537" y="-51" type="line"/>
      <point x="579" y="-52" type="line"/>
      <point x="288" y="304" type="line"/>
      <point x="204" y="121" type="line"/>
      <point x="456" y="-173" type="line" smooth="yes"/>
      <point x="465" y="-184"/>
      <point x="474" y="-189"/>
    </contour>
    <contour>
      <point x="808" y="0" type="curve"/>
      <point x="812" y="41"/>
      <point x="811" y="62"/>
      <point x="811" y="120" type="curve" smooth="yes"/>
      <point x="811" y="157"/>
      <point x="706" y="290"/>
      <point x="698" y="301" type="curve" smooth="yes"/>
      <point x="593" y="446"/>
      <point x="561" y="481"/>
      <point x="561" y="534" type="curve" smooth="yes"/>
      <point x="561" y="553"/>
      <point x="569" y="582"/>
      <point x="569" y="602" type="curve" smooth="yes"/>
      <point x="569" y="614"/>
      <point x="566" y="622"/>
      <point x="557" y="622" type="curve" smooth="yes"/>
      <point x="550" y="622"/>
      <point x="540" y="616"/>
      <point x="535" y="602" type="curve" smooth="yes"/>
      <point x="509" y="527"/>
      <point x="449" y="389"/>
      <point x="449" y="356" type="curve" smooth="yes"/>
      <point x="449" y="338"/>
      <point x="535" y="231"/>
      <point x="630" y="101" type="curve" smooth="yes"/>
      <point x="680" y="33"/>
      <point x="775" y="0"/>
    </contour>
  </outline>
</glyph>
<glyph name="taw_alaph-syriac.twined" format="2">
  <advance width="1143"/>
  <anchor x="889" y="825" name="above_1"/>
  <anchor x="454" y="990" name="above_2"/>
  <anchor x="949" y="-150" name="below_1"/>
  <anchor x="529" y="-150" name="below_2"/>
  <outline>
    <contour>
      <point x="891" y="195" type="line"/>
      <point x="408" y="195" type="line"/>
      <point x="284" y="0" type="line"/>
      <point x="891" y="0" type="line"/>
    </contour>
    <contour>
      <point x="672" y="339" type="curve" smooth="yes"/>
      <point x="670" y="179" type="line"/>
      <point x="754" y="179" type="line"/>
      <point x="754" y="233"/>
      <point x="754" y="286"/>
      <point x="754" y="329" type="curve" smooth="yes"/>
      <point x="754" y="395"/>
      <point x="804" y="442"/>
      <point x="859" y="442" type="curve" smooth="yes"/>
      <point x="936" y="442"/>
      <point x="1000" y="373"/>
      <point x="1000" y="186" type="curve" smooth="yes"/>
      <point x="1000" y="163"/>
      <point x="1000" y="43"/>
      <point x="999" y="0" type="curve"/>
      <point x="1092" y="0" type="line"/>
      <point x="1093" y="98"/>
      <point x="1093" y="166"/>
      <point x="1093" y="229" type="curve" smooth="yes"/>
      <point x="1093" y="506"/>
      <point x="1014" y="612"/>
      <point x="878" y="612" type="curve" smooth="yes"/>
      <point x="772" y="612"/>
      <point x="674" y="516"/>
    </contour>
    <contour>
      <point x="705" y="189" type="line"/>
      <point x="740" y="399" type="line"/>
      <point x="683" y="392"/>
      <point x="598" y="461"/>
      <point x="435" y="540" type="curve" smooth="yes"/>
      <point x="161" y="673"/>
      <point x="152" y="676"/>
      <point x="129" y="749" type="curve" smooth="yes"/>
      <point x="112" y="802"/>
      <point x="107" y="819"/>
      <point x="99" y="819" type="curve" smooth="yes"/>
      <point x="76" y="819"/>
      <point x="50" y="643"/>
      <point x="50" y="629" type="curve" smooth="yes"/>
      <point x="50" y="601"/>
      <point x="65" y="584"/>
      <point x="76" y="574" type="curve" smooth="yes"/>
      <point x="99" y="553"/>
      <point x="359" y="427"/>
      <point x="646" y="272" type="curve" smooth="yes"/>
      <point x="675" y="256"/>
      <point x="669" y="220"/>
      <point x="669" y="189" type="curve"/>
    </contour>
    <contour>
      <point x="254" y="-85" type="curve" smooth="yes"/>
      <point x="556" y="314"/>
      <point x="594" y="506"/>
      <point x="594" y="708" type="curve" smooth="yes"/>
      <point x="594" y="777"/>
      <point x="569" y="892"/>
      <point x="481" y="892" type="curve" smooth="yes"/>
      <point x="393" y="892"/>
      <point x="331" y="803"/>
      <point x="331" y="723" type="curve" smooth="yes"/>
      <point x="331" y="658"/>
      <point x="372" y="600"/>
      <point x="472" y="600" type="curve" smooth="yes"/>
      <point x="491" y="600"/>
      <point x="512" y="602"/>
      <point x="535" y="607" type="curve"/>
      <point x="512" y="650" type="line"/>
      <point x="513" y="642"/>
      <point x="513" y="633"/>
      <point x="513" y="624" type="curve" smooth="yes"/>
      <point x="513" y="415"/>
      <point x="348" y="139"/>
      <point x="225" y="-58" type="curve" smooth="yes"/>
      <point x="220" y="-67"/>
      <point x="216" y="-73"/>
      <point x="216" y="-80" type="curve" smooth="yes"/>
      <point x="216" y="-90"/>
      <point x="224" y="-97"/>
      <point x="233" y="-97" type="curve" smooth="yes"/>
      <point x="240" y="-97"/>
      <point x="247" y="-94"/>
    </contour>
  </outline>
</glyph>
<glyph name="taw_yudh-syriac" format="2">
  <advance width="1455"/>
  <anchor x="872" y="975" name="above_1"/>
  <anchor x="317" y="570" name="above_2"/>
  <anchor x="902" y="-150" name="below_1"/>
  <anchor x="347" y="-150" name="below_2"/>
  <outline>
    <component base="taw-syriac" xOffset="565"/>
    <component base="_LeftTail" xOffset="-52"/>
    <contour>
      <point x="396" y="195" type="curve"/>
      <point x="545" y="118"/>
      <point x="601" y="-18"/>
      <point x="726" y="-18" type="curve"/>
      <point x="761" y="175" type="line"/>
      <point x="736" y="175"/>
      <point x="696" y="199"/>
      <point x="647" y="234" type="curve" smooth="yes"/>
      <point x="565" y="292"/>
      <point x="434" y="394"/>
      <point x="422" y="436" type="curve"/>
      <point x="420" y="402"/>
      <point x="399" y="240"/>
    </contour>
    <contour>
      <point x="485" y="195" type="curve"/>
      <point x="302" y="195" type="line"/>
      <point x="302" y="0" type="line"/>
      <point x="436" y="0" type="line" smooth="yes"/>
      <point x="474" y="0"/>
      <point x="496" y="8"/>
      <point x="496" y="78" type="curve" smooth="yes"/>
      <point x="496" y="106"/>
      <point x="492" y="144"/>
    </contour>
  </outline>
</glyph>
<glyph name="teth-syriac.init" format="2">
  <advance width="1231"/>
  <anchor x="685" y="750" name="above"/>
  <anchor x="50" y="750" name="aboveleft"/>
  <anchor x="355" y="-150" name="below"/>
  <anchor x="50" y="-150" name="belowleft"/>
  <outline>
    <contour>
      <point x="1158" y="0" type="curve"/>
      <point x="1173" y="34"/>
      <point x="1185" y="165"/>
      <point x="1179" y="195" type="curve"/>
      <point x="-20" y="195" type="line"/>
      <point x="-20" y="0" type="line"/>
      <point x="1126" y="0" type="line"/>
      <point x="1085" y="39" type="line"/>
      <point x="879" y="-345" type="line"/>
      <point x="930" y="-322" type="line"/>
      <point x="892" y="-260"/>
      <point x="339" y="808"/>
      <point x="339" y="863" type="curve" smooth="yes"/>
      <point x="339" y="900"/>
      <point x="372" y="970"/>
      <point x="372" y="983" type="curve" smooth="yes"/>
      <point x="372" y="991"/>
      <point x="368" y="994"/>
      <point x="362" y="994" type="curve" smooth="yes"/>
      <point x="340" y="994"/>
      <point x="160" y="779"/>
      <point x="160" y="750" type="curve" smooth="yes"/>
      <point x="160" y="672"/>
      <point x="861" y="-502"/>
      <point x="877" y="-502" type="curve" smooth="yes"/>
      <point x="896" y="-502"/>
      <point x="1083" y="-137"/>
    </contour>
  </outline>
</glyph>
<glyph name="tethGarshuni-syriac.fina" format="2">
  <advance width="1451"/>
  <anchor x="960" y="765" name="above"/>
  <anchor x="50" y="765" name="aboveleft"/>
  <anchor x="632" y="-150" name="below"/>
  <anchor x="50" y="-150" name="belowleft"/>
  <outline>
    <component base="teth-syriac.fina"/>
    <contour>
      <point x="1155" y="-147" type="curve" smooth="yes"/>
      <point x="1198" y="-147"/>
      <point x="1220" y="-126"/>
      <point x="1220" y="-83" type="curve" smooth="yes"/>
      <point x="1220" y="-40"/>
      <point x="1198" y="-19"/>
      <point x="1155" y="-19" type="curve" smooth="yes"/>
      <point x="1112" y="-19"/>
      <point x="1091" y="-40"/>
      <point x="1091" y="-83" type="curve" smooth="yes"/>
      <point x="1091" y="-126"/>
      <point x="1112" y="-147"/>
    </contour>
  </outline>
</glyph>
<glyph name="tethGarshuni-syriac.init" format="2">
  <advance width="1231"/>
  <anchor x="720" y="750" name="above"/>
  <anchor x="50" y="750" name="aboveleft"/>
  <anchor x="355" y="-150" name="below"/>
  <anchor x="50" y="-150" name="belowleft"/>
  <outline>
    <component base="teth-syriac.init"/>
    <contour>
      <point x="910" y="-147" type="curve" smooth="yes"/>
      <point x="953" y="-147"/>
      <point x="975" y="-126"/>
      <point x="975" y="-83" type="curve" smooth="yes"/>
      <point x="975" y="-40"/>
      <point x="953" y="-19"/>
      <point x="910" y="-19" type="curve" smooth="yes"/>
      <point x="867" y="-19"/>
      <point x="846" y="-40"/>
      <point x="846" y="-83" type="curve" smooth="yes"/>
      <point x="846" y="-126"/>
      <point x="867" y="-147"/>
    </contour>
  </outline>
</glyph>
<glyph name="tethGarshuni-syriac.medi" format="2">
  <advance width="1207"/>
  <anchor x="720" y="750" name="above"/>
  <anchor x="50" y="750" name="aboveleft"/>
  <anchor x="420" y="-150" name="below"/>
  <anchor x="50" y="-150" name="belowleft"/>
  <outline>
    <component base="teth-syriac.medi"/>
    <contour>
      <point x="910" y="-147" type="curve" smooth="yes"/>
      <point x="953" y="-147"/>
      <point x="975" y="-126"/>
      <point x="975" y="-83" type="curve" smooth="yes"/>
      <point x="975" y="-40"/>
      <point x="953" y="-19"/>
      <point x="910" y="-19" type="curve" smooth="yes"/>
      <point x="867" y="-19"/>
      <point x="846" y="-40"/>
      <point x="846" y="-83" type="curve" smooth="yes"/>
      <point x="846" y="-126"/>
      <point x="867" y="-147"/>
    </contour>
  </outline>
</glyph>
<glyph name="three.latn" format="2">
  <advance width="737"/>
  <outline>
    <contour>
      <point x="357" y="423" type="line"/>
      <point x="503" y="459"/>
      <point x="607" y="533"/>
      <point x="607" y="649" type="curve" smooth="yes"/>
      <point x="607" y="752"/>
      <point x="518" y="836"/>
      <point x="369" y="836" type="curve" smooth="yes"/>
      <point x="243" y="836"/>
      <point x="136" y="767"/>
      <point x="84" y="660" type="curve"/>
      <point x="146" y="616" type="line"/>
      <point x="179" y="664"/>
      <point x="235" y="693"/>
      <point x="298" y="693" type="curve" smooth="yes"/>
      <point x="366" y="693"/>
      <point x="411" y="659"/>
      <point x="411" y="597" type="curve" smooth="yes"/>
      <point x="411" y="519"/>
      <point x="336" y="461"/>
      <point x="221" y="448" type="curve"/>
      <point x="231" y="363" type="line"/>
      <point x="249" y="367"/>
      <point x="271" y="368"/>
      <point x="295" y="368" type="curve" smooth="yes"/>
      <point x="397" y="368"/>
      <point x="462" y="313"/>
      <point x="462" y="224" type="curve" smooth="yes"/>
      <point x="462" y="122"/>
      <point x="388" y="55"/>
      <point x="291" y="84" type="curve"/>
      <point x="342" y="58" type="line"/>
      <point x="243" y="147" type="line" smooth="yes"/>
      <point x="208" y="177"/>
      <point x="188" y="188"/>
      <point x="151" y="188" type="curve" smooth="yes"/>
      <point x="108" y="188"/>
      <point x="78" y="155"/>
      <point x="78" y="113" type="curve" smooth="yes"/>
      <point x="78" y="40"/>
      <point x="172" y="-12"/>
      <point x="301" y="-12" type="curve" smooth="yes"/>
      <point x="524" y="-12"/>
      <point x="659" y="118"/>
      <point x="659" y="245" type="curve" smooth="yes"/>
      <point x="659" y="370"/>
      <point x="560" y="450"/>
      <point x="389" y="452" type="curve"/>
    </contour>
  </outline>
</glyph>
<glyph name="two.cv02" format="2">
  <advance width="737"/>
  <outline>
    <contour>
      <point x="73" y="-4" type="line"/>
      <point x="109" y="0"/>
      <point x="148" y="0"/>
      <point x="182" y="0" type="curve" smooth="yes"/>
      <point x="460" y="0" type="line" smooth="yes"/>
      <point x="500" y="0"/>
      <point x="603" y="-2"/>
      <point x="655" y="-7" type="curve"/>
      <point x="701" y="244" type="line"/>
      <point x="612" y="255" type="line"/>
      <point x="570" y="155" type="line"/>
      <point x="541" y="150"/>
      <point x="526" y="149"/>
      <point x="490" y="149" type="curve" smooth="yes"/>
      <point x="248" y="149" type="line"/>
      <point x="249" y="134" type="line"/>
      <point x="479" y="269"/>
      <point x="609" y="426"/>
      <point x="609" y="579" type="curve" smooth="yes"/>
      <point x="609" y="730"/>
      <point x="496" y="836"/>
      <point x="336" y="836" type="curve" smooth="yes"/>
      <point x="201" y="836"/>
      <point x="92" y="763"/>
      <point x="36" y="632" type="curve"/>
      <point x="100" y="587" type="line"/>
      <point x="141" y="655"/>
      <point x="198" y="689"/>
      <point x="266" y="689" type="curve" smooth="yes"/>
      <point x="351" y="689"/>
      <point x="407" y="631"/>
      <point x="407" y="543" type="curve" smooth="yes"/>
      <point x="407" y="403"/>
      <point x="310" y="264"/>
      <point x="69" y="73" type="curve"/>
    </contour>
  </outline>
</glyph>
<glyph name="yudh-syriac.fina" format="2">
  <advance width="908"/>
  <anchor x="496" y="540" name="above"/>
  <anchor x="50" y="540" name="aboveleft"/>
  <anchor x="541" y="-150" name="below"/>
  <anchor x="50" y="-150" name="belowleft"/>
  <outline>
    <component base="_LeftTail" xOffset="7"/>
    <component base="_yudh-med" xOffset="356"/>
    <contour>
      <point x="553" y="195" type="curve"/>
      <point x="333" y="195" type="line"/>
      <point x="333" y="0" type="line"/>
      <point x="434" y="0" type="line" smooth="yes"/>
      <point x="519" y="0"/>
      <point x="553" y="65"/>
    </contour>
  </outline>
</glyph>
<glyph name="yudh-syriac.medi" format="2">
  <advance width="722"/>
  <anchor x="360" y="540" name="above"/>
  <anchor x="50" y="540" name="aboveleft"/>
  <anchor x="345" y="-150" name="below"/>
  <anchor x="50" y="-150" name="belowleft"/>
  <outline>
    <component base="_yudh-med" xOffset="170"/>
    <contour>
      <point x="387" y="195" type="curve"/>
      <point x="-20" y="195" type="line"/>
      <point x="-20" y="0" type="line"/>
      <point x="268" y="0" type="line" smooth="yes"/>
      <point x="353" y="0"/>
      <point x="387" y="65"/>
    </contour>
  </outline>
</glyph>
<glyph name="zero.cv02" format="2">
  <advance width="737"/>
  <outline>
    <contour>
      <point x="377" y="-12" type="curve" smooth="yes"/>
      <point x="558" y="-12"/>
      <point x="703" y="175"/>
      <point x="703" y="423" type="curve" smooth="yes"/>
      <point x="703" y="675"/>
      <point x="571" y="836"/>
      <point x="378" y="836" type="curve" smooth="yes"/>
      <point x="175" y="836"/>
      <point x="35" y="663"/>
      <point x="35" y="400" type="curve" smooth="yes"/>
      <point x="35" y="152"/>
      <point x="176" y="-12"/>
    </contour>
    <contour>
      <point x="390" y="90" type="curve" smooth="yes"/>
      <point x="307" y="90"/>
      <point x="249" y="231"/>
      <point x="249" y="442" type="curve" smooth="yes"/>
      <point x="249" y="641"/>
      <point x="292" y="745"/>
      <point x="364" y="745" type="curve" smooth="yes"/>
      <point x="443" y="745"/>
      <point x="493" y="605"/>
      <point x="493" y="387" type="curve" smooth="yes"/>
      <point x="493" y="180"/>
      <point x="460" y="90"/>
    </contour>
  </outline>
</glyph>
